<svg xmlns="http://www.w3.org/2000/svg" width="50" height="50"><path fill="#67B4FF" stroke="black" stroke-opacity="0.75" stroke-width="4" d="M32.781 0c-.55.035-.972.512-.937 1.063.035.55.511.972 1.062.937L38 2.438V7.5c.465.031.918.055 1.344.125.218.031.437.082.656.125V2.594l6.813.594c.382.093.785-.043 1.027-.352a.994.994 0 0 0 .101-1.078.989.989 0 0 0-.941-.54L33.094 0a1.024 1.024 0 0 0-.219 0h-.094zm4.25 9.438c-4.39 0-8.148 2.085-8.375 2.218l-23.718 16c-.032.024-.067.07-.094.094C-.07 31.113 0 38.035 0 38.125c.012.55.473.965 1.031.969.551-.012.961-.45.969-1 .066-3.977 1.676-9.918 9.906-10.625 11.184-.824 15.32 10.16 15.5 10.656a.99.99 0 0 0 1.282.594c.007-.004.023.004.03 0a.84.84 0 0 0 .25-.157l20.657-17a.96.96 0 0 0 .375-.75c0-5.757-5.664-10.433-10.938-11.187a12.747 12.747 0 0 0-2.03-.188zm10.438 16.5L29.625 40.563c-.105.972-.336 1.91-.656 2.812 5.172-4.055 12.527-9.809 14.656-11.5 2.121-1.715 3.32-3.523 3.844-5.938zm-34.375 3.468c-.34 0-.676.008-1 .032-4.934.425-7.625 3.003-8.031 7.656-.004.039-.028.086-.032.125-.023.293-.027.601-.031.906a2.98 2.98 0 0 1-.094.625C4.68 44.402 9.562 49.3 15.47 50c.418.05.86.063 1.281.063 5.008 0 9.355-3.524 10.594-8.126.066-.242.133-.68.218-1.25a2.984 2.984 0 0 1-2.03-1.874c-.137-.383-3.489-9.407-12.438-9.407zm1.5 3.625c.293-.011.594.012.906.063 2.5.3 4.5 2.593 4.5 5.093S18 42.398 15.5 42c-2.5-.3-4.5-2.594-4.5-5.094 0-2.187 1.535-3.781 3.594-3.875z"/></svg>