<svg id="Group_479" data-name="Group 479" xmlns="http://www.w3.org/2000/svg" width="259.96" height="403.552" viewBox="0 0 259.96 403.552">
  <path id="Path_419" data-name="Path 419" d="M150.52,30.84V66.756a70.732,70.732,0,0,0,9.34,35.124l69.319,121.092A27.414,27.414,0,0,1,205.691,263.4H41.889a27.7,27.7,0,0,1-24.747-40.424l69.3-121.066A70.737,70.737,0,0,0,95.78,66.777V30.84L123.161,24Z" transform="translate(6.804 140.157)" fill="#90bae1"/>
  <path id="Path_420" data-name="Path 420" d="M159.039,130.918H28.9a9.856,9.856,0,0,1-8.543-14.767L57.535,51.48A10.52,10.52,0,0,1,71.625,47.7a11.372,11.372,0,0,0,5.226,1.142c8.55,0,8.55-6.84,17.1-6.84s8.55,6.84,17.1,6.84a11.287,11.287,0,0,0,5.363-1.21,10.472,10.472,0,0,1,14.1,3.735l37.072,64.808a9.85,9.85,0,0,1-8.55,14.747Z" transform="translate(36.012 245.275)" fill="#cc4b4c"/>
  <path id="Path_421" data-name="Path 421" d="M151.827,126.112l66.559-55.4a5.171,5.171,0,0,0-2.442-9.077l-20.3-3.42a13.68,13.68,0,0,1-11.211-11.279l-4.227-25.8a5.1,5.1,0,0,0-6.956-3.9l-19.767,8.051a13.68,13.68,0,0,1-14.938-3.139L121.2,4.5a5.02,5.02,0,0,0-7.154,0L96.711,22.146a13.68,13.68,0,0,1-14.918,3.085L62.026,17.18a5.1,5.1,0,0,0-6.956,3.9l-4.227,25.8a13.68,13.68,0,0,1-11.19,11.286l-20.376,3.42A5.137,5.137,0,0,0,16.848,70.6l66.58,55.512,34.2,6.84Z" transform="translate(12.335 17.525)" fill="#f0c419"/>
  <path id="Path_422" data-name="Path 422" d="M78.784,82.266l26.156-41.846a8.413,8.413,0,0,0-7.134-12.873H91.287a13.678,13.678,0,0,1-9.67-4.006L71.055,12.978a8.406,8.406,0,0,0-11.9,0L48.592,23.539a13.68,13.68,0,0,1-9.672,4.008H32.4a8.413,8.413,0,0,0-7.134,12.873L51.424,82.266l13.68,6.84Z" transform="translate(64.857 61.371)" fill="#e57e25"/>
  <g id="Group_467" data-name="Group 467">
    <path id="Path_224" data-name="Path 224" d="M34.581,13.562,20.9,6.722a6.843,6.843,0,1,0-6.115,12.243l13.68,6.84a6.843,6.843,0,0,0,6.115-12.243Z" transform="translate(-10.999 35.035)" fill="#f0c419"/>
    <path id="Path_225" data-name="Path 225" d="M33.676,2A6.839,6.839,0,1,0,24,11.676l6.841,6.839a6.839,6.839,0,1,0,9.672-9.672Z" transform="translate(53.243 0)" fill="#f0c419"/>
    <path id="Path_226" data-name="Path 226" d="M26.676,3A6.839,6.839,0,1,0,17,12.676l6.841,6.839a6.839,6.839,0,1,0,9.672-9.672Z" transform="translate(12.364 5.84)" fill="#f0c419"/>
    <path id="Path_227" data-name="Path 227" d="M71.65,9.787a6.84,6.84,0,0,0-9.179-3.064l-13.68,6.84a6.843,6.843,0,1,0,6.115,12.243l13.68-6.84A6.84,6.84,0,0,0,71.65,9.787Z" transform="translate(187.587 35.035)" fill="#f0c419"/>
    <path id="Path_228" data-name="Path 228" d="M43.844,2,37,8.844a6.839,6.839,0,1,0,9.673,9.672l6.839-6.841A6.839,6.839,0,1,0,43.843,2Z" transform="translate(129.162 0)" fill="#f0c419"/>
    <path id="Path_229" data-name="Path 229" d="M50.844,3,44,9.844a6.839,6.839,0,1,0,9.672,9.672l6.839-6.841A6.839,6.839,0,1,0,50.843,3Z" transform="translate(170.042 5.84)" fill="#f0c419"/>
  </g>
  <rect id="Rectangle_230" data-name="Rectangle 230" width="95.759" height="27.359" rx="2" transform="translate(82.082 143.638)" fill="#b0d3f0"/>
</svg>
