<svg id="Group_483" data-name="Group 483" xmlns="http://www.w3.org/2000/svg" width="361.24" height="342.783" viewBox="0 0 361.24 342.783">
  <path id="Path_456" data-name="Path 456" d="M426.608,268.428a5.486,5.486,0,0,1-5.292-6.934l13.32-48.613a5.484,5.484,0,1,1,10.578,2.9l-13.32,48.61A5.487,5.487,0,0,1,426.608,268.428Zm0,0" transform="translate(-124.004 -61.498)" fill="#a05e44"/>
  <path id="Path_457" data-name="Path 457" d="M231.61,214.617,51.123,234.973,34.5,87.63l83.8-67.309,96.689,46.954Zm0,0" transform="translate(-10.16 -5.985)" fill="#efefef"/>
  <path id="Path_458" data-name="Path 458" d="M194.064,86.649l15.026,133.21,46.488-5.242L238.962,67.274,142.273,20.32,115.9,41.506l70.43,34.2A13.9,13.9,0,0,1,194.064,86.649Zm0,0" transform="translate(-34.127 -5.985)" fill="#d8d8d8"/>
  <path id="Path_459" data-name="Path 459" d="M4.914,80.152,102.62,1.678a7.616,7.616,0,0,1,8.094-.915L223.443,55.505a13.145,13.145,0,0,1-11.484,23.649L114.2,31.683a7.611,7.611,0,0,0-8.094.912L21.375,100.648a13.144,13.144,0,1,1-16.462-20.5Zm0,0" transform="translate(0 0)" fill="#fc4e51"/>
  <path id="Path_460" data-name="Path 460" d="M149.023,268.546,89.1,275.3,78.2,178.659a5.624,5.624,0,0,1,4.961-6.223l48.74-5.5a5.628,5.628,0,0,1,6.223,4.964Zm0,0" transform="translate(-23.02 -49.147)" fill="#912c2c"/>
  <path id="Path_461" data-name="Path 461" d="M138.671,244.948a5.484,5.484,0,0,1-5.443-4.87l-1.254-11.12a5.485,5.485,0,1,1,10.9-1.229l1.257,11.12a5.488,5.488,0,0,1-4.837,6.066A5.943,5.943,0,0,1,138.671,244.948Zm0,0" transform="translate(-38.847 -65.624)" fill="#d8d8d8"/>
  <path id="Path_462" data-name="Path 462" d="M245.566,207.505l-42.42,4.785a5.019,5.019,0,0,1-5.551-4.424l-4.784-42.423a5.018,5.018,0,0,1,4.426-5.548l42.421-4.784a5.02,5.02,0,0,1,5.55,4.424l4.782,42.42A5.016,5.016,0,0,1,245.566,207.505Zm0,0" transform="translate(-56.763 -45.667)" fill="#33d8dd"/>
  <path id="Path_463" data-name="Path 463" d="M292.963,272.738l-28.332,24.471a5.239,5.239,0,0,0-.9,6.934l16.7,24.321a5.978,5.978,0,0,1-.9,7.8L214.241,392.7a2.45,2.45,0,0,1-3.676-3.158L243.9,336.559a5.98,5.98,0,0,0-1.064-6.024l-22.213-25.741L240.2,283.1a2.543,2.543,0,0,0-2.172-4.23L6.8,304.678a7.651,7.651,0,0,0-6.8,7.6V415.443A7.652,7.652,0,0,0,7.651,423.1H353.581a7.654,7.654,0,0,0,7.653-7.654V279.6a3.363,3.363,0,0,0-3.737-3.343Zm0,0" transform="translate(0.004 -80.314)" fill="#e88c38"/>
  <path id="Path_464" data-name="Path 464" d="M485.73,276.757l-42.6-2.324V415.942a7.651,7.651,0,0,1-7.651,7.653h46.34a7.653,7.653,0,0,0,7.651-7.653V280.1A3.363,3.363,0,0,0,485.73,276.757Zm0,0" transform="translate(-128.229 -80.813)" fill="#cc7a2f"/>
  <path id="Path_465" data-name="Path 465" d="M238.025,281.422,6.8,307.23a7.651,7.651,0,0,0-6.8,7.6v17.134l98.494-10.993,122.124-13.631L240.2,285.653A2.544,2.544,0,0,0,238.025,281.422Zm0,0" transform="translate(0.004 -82.865)" fill="#cebb84"/>
  <path id="Path_466" data-name="Path 466" d="M467.236,276.258,402.7,272.738,374.37,297.209a5.226,5.226,0,0,0-1.7,2.861l98.3-.251V279.6A3.363,3.363,0,0,0,467.236,276.258Zm0,0" transform="translate(-109.739 -80.314)" fill="#cebb84"/>
  <path id="Path_467" data-name="Path 467" d="M488.922,276.757l-42.6-2.324v26l46.34-.118V280.1A3.364,3.364,0,0,0,488.922,276.757Zm0,0" transform="translate(-131.421 -80.813)" fill="#b7a169"/>
  <path id="Path_468" data-name="Path 468" d="M444.044,134.287,389.26,187.3a2.4,2.4,0,0,0,1.037,4.043l74.9,20.524a2.4,2.4,0,0,0,2.951-2.952l-20.113-73.532A2.4,2.4,0,0,0,444.044,134.287Zm0,0" transform="translate(-114.409 -39.344)" fill="#8fd143"/>
  <path id="Path_469" data-name="Path 469" d="M456.27,106.412l-43.79,42.373a2.4,2.4,0,0,0,1.036,4.043l59.866,16.4a2.4,2.4,0,0,0,2.954-2.952L460.26,107.507A2.4,2.4,0,0,0,456.27,106.412Zm0,0" transform="translate(-121.243 -31.135)" fill="#7bb72e"/>
  <path id="Path_470" data-name="Path 470" d="M468.195,80.116,435.71,111.547a2.4,2.4,0,0,0,1.035,4.046l44.411,12.168a2.4,2.4,0,0,0,2.951-2.952l-11.925-43.6A2.4,2.4,0,0,0,468.195,80.116Zm0,0" transform="translate(-128.082 -23.392)" fill="#8fd143"/>
</svg>
