<svg id="Group_480" data-name="Group 480" xmlns="http://www.w3.org/2000/svg" width="387.567" height="387.542" viewBox="0 0 387.567 387.542">
  <path id="Path_363" data-name="Path 363" d="M334.714,105.9c0-29.187-31.544-52.846-70.46-52.846,0-29.187-31.546-52.844-70.46-52.844s-70.462,23.657-70.462,52.844c-38.914,0-70.46,23.66-70.46,52.846a52.845,52.845,0,1,0-.053,105.69h.053A52.758,52.758,0,0,0,156.881,224.2a138.517,138.517,0,0,0,73.823,0,52.708,52.708,0,1,0,100.688-30.5c1.121.06,2.185.28,3.322.28,29.187,0,52.847-19.717,52.847-44.039S363.9,105.9,334.714,105.9Zm0,0" transform="translate(0 -0.21)" fill="#ec590a"/>
  <path id="Path_364" data-name="Path 364" d="M510.644,322.627A52.844,52.844,0,0,0,457.8,269.781h-.448l-.05,0h-.256l-.023,0h-.083l-.068,0h-.1q-1.488.032-2.956.14l-.079,0-.014,0-.066,0-.019,0-.063,0-.024,0-.053,0-.032,0-.043,0-.04,0-.036,0-.048,0h-.021l-.53.048A17.619,17.619,0,0,0,436.8,287.534q0,.835.08,1.682a17.616,17.616,0,0,0,19.2,15.874q.851-.079,1.722-.081a17.615,17.615,0,1,1,0,35.231l-.51-.007c-.04,0-.08,0-.121,0-.068,0-.14-.007-.209-.009a17.458,17.458,0,0,1-5.679-1.217,17.615,17.615,0,0,0-13.12,32.7,52.663,52.663,0,0,0,17.258,3.717l.126.005.041,0c.248.009.492.018.737.025h0l.08,0h.016l.05,0h.053c.253.007.507.01.763.012h0l.078,0h.429A52.84,52.84,0,0,0,510.644,322.627Zm0,0" transform="translate(-175.932 -111.245)" fill="#d34000"/>
  <path id="Path_365" data-name="Path 365" d="M445.111,243.117q-.761,0-1.532.064a17.618,17.618,0,0,0-16.038,19.063q.123,1.43.181,2.879v0l0,.1c0,.1.007.2.011.294v0l0,.089v.014l0,.083,0,.016,0,.085v.01c0,.064,0,.128,0,.2v.112l0,.076v.023l0,.074v.023l0,.078v.016c0,.062,0,.126,0,.191v.119l0,.066v.124l0,.083v1.213l0,.09v0l0,.087v.313l0,.085v.021l0,.083v.018l0,.087,0,.09v.119l0,.085v.012l0,.082v.012l0,.087v.016l-.005.085v.016l0,.09,0,.087,0,.016,0,.087v.014l0,.087,0,.014,0,.083v.009l0,.087v.016l0,.087v.014l0,.09,0,.09,0,.014,0,.085,0,.018,0,.082,0,.016,0,.078,0,.014-.005.085v.016l0,.085,0,.016-.009.179v.014l0,.087v.011l-.007.09v.009l-.005.087v.007l-.006.085v.019l-.007.082v.018l-.007.087v0l0,.085,0,.016,0,.083,0,.021,0,.082,0,.014,0,.08,0,.011,0,.085,0,.016,0,.083,0,.021-.007.085v0l-.007.082,0,.016,0,.085,0,.016-.007.085,0,.016-.007.08v.007l-.007.087,0,.016-.008.085v.014l-.009.09v0l-.007.09v.009l-.009.088,0,.013-.007.087,0,.009-.007.087v.007l-.01.087v.014l-.007.085,0,.013-.009.088v0l-.01.085v.014l-.009.085,0,.013-.009.087v.011l-.009.085,0,0-.009.089,0,.016-.009.085v.014l-.011.087v0l-.01.09,0,.009-.009.088,0,.014-.008.087,0,.009-.01.087v0l-.011.09v.01l-.011.087v.011c-.009.062-.016.122-.023.184v0l-.011.09,0,.011-.011.087v.011l-.011.085,0,0-.009.087,0,.011-.011.09,0,.009-.023.182,0,.007-.012.087,0,.014-.011.085,0,.011-.011.087v0l-.011.087,0,.014-.011.085,0,.012c-.008.062-.018.119-.027.181v.007l-.014.087v.01l-.013.09,0,.007-.011.092-.014.087-.018.11-.014.087v0l-.014.088v.007l-.013.087,0,.014-.014.085,0,.009c-.01.06-.018.122-.03.181v0l-.013.089,0,.012c-.011.062-.02.121-.032.181v0l-.013.092,0,.007-.013.087,0,.009c-.01.06-.021.119-.03.179l0,.009-.016.087,0,.009-.048.275,0,.009-.016.087v.007c-.011.06-.023.122-.035.182V279l-.018.087v.009l-.034.179,0,.008-.016.087v.009l-.017.087,0,.009-.034.177,0,.009-.018.087v.009l-.018.09-.018.092v0l-.018.085,0,.014-.019.085,0,.01c-.011.059-.023.119-.036.179v.007l-.018.085,0,.011c-.017.09-.038.182-.057.273l0,0-.018.087,0,.009c-.014.06-.028.119-.039.179v0l-.021.089,0,0c-.017.092-.038.182-.059.274l0,.007-.02.09v0c-.016.06-.03.122-.044.181v0l-.021.09,0,0c-.028.124-.058.246-.087.37-.014.062-.03.122-.044.184v0l-.023.09v0c-.023.09-.047.182-.069.274v0l-.023.089c-.025.094-.046.184-.072.276v0c-.03.124-.062.244-.094.365v0c-.023.09-.048.184-.074.276-.058.211-.117.427-.177.641-.085.305-.172.608-.264.912l-.025.092c-.027.09-.055.182-.083.271v0c-.036.12-.073.242-.112.36v0a61.7,61.7,0,0,1-19.52,29.12l0,0-.069.057,0,0c-.071.058-.14.115-.212.175l0,0c-.071.057-.14.115-.212.172l0,0-.069.057-.005,0-.14.113,0,0-.069.055,0,0-.069.055,0,0-.138.11-.006,0-.067.055,0,0-.14.11,0,0-.067.053-.009.007-.067.05-.005.007-.068.053-.072.055,0,0-.069.055-.007,0-.064.051a17.615,17.615,0,1,0,21.562,27.861A96.274,96.274,0,0,0,463,267.608q0-4.238-.358-8.387A17.62,17.62,0,0,0,445.111,243.117Zm0,0" transform="translate(-163.519 -100.263)" fill="#b22a00"/>
  <path id="Path_366" data-name="Path 366" d="M399.983,90.066c38.914,0,70.46,23.659,70.46,52.846s-31.546,52.844-70.46,52.844-70.46-23.66-70.46-52.844a17.615,17.615,0,1,1,35.229,0c0,6.21,13.377,17.613,35.231,17.613s35.231-11.4,35.231-17.613S421.838,125.3,399.983,125.3a17.615,17.615,0,0,1,0-35.231Zm0,0" transform="translate(-135.73 -37.221)" fill="#d34000"/>
  <path id="Path_367" data-name="Path 367" d="M536.729,179.926h-.7c-.216,0-.434.007-.649.011a17.457,17.457,0,0,0-16.973,17.737,17.776,17.776,0,0,0,17.744,17.482h.136l.441,0q.3,0,.6-.014c.2.016.4.03.6.039l.434.021c.063,0,.124.007.183.009.083.007.166.014.249.019,10.253.737,15.539,6.455,15.539,8.734,0,2.69-6.655,8.808-17.615,8.808-7.684,0-13.253-2.968-15.9-5.748A17.615,17.615,0,0,0,495.3,251.3l.021.021q.793.834,1.633,1.633h0c.1.1.2.188.3.282v0l.058.053.007.007.056.051,0,0,.243.223.057.053.009.007.053.048.007.007.055.051,0,0c.08.073.163.147.244.218l.009.007.051.046.011.012.048.041.013.013.051.046.006.007.186.161,0,.007.055.046.012.011.048.041.013.013.048.04.014.013.049.041.011.009.125.108,0,0,.057.049.015.011.045.041.018.013.043.039.018.013.044.039.018.014.048.041.011.009.124.1.011.012.048.041.018.014.044.037.018.016.044.034.02.016.044.037.016.014.053.044.009.007.062.053.005,0,.057.046.018.016.044.035.018.016.043.034.021.016.042.035.023.016.039.034.023.016.055.046,0,0,.062.05.016.014.046.035.023.018.039.032.025.018.038.032.025.018.039.03.026.02.062.049.058.046,0,0,.062.048.023.016.039.032.025.021.1.076.027.023.035.027.027.021.04.03.025.018.06.046.063.048.03.023.034.028.027.021.037.025.03.023.032.025.032.023.028.023.037.025.027.021.048.037.046.035.03.023.035.025.032.023.03.023.032.025.065.046.032.025.032.023.03.023.035.025.1.074.023.016.035.028.027.018.065.048.035.025.027.021.037.025.03.021.035.025.025.021.04.027.011.009.089.062.023.016.04.028.025.019.037.027.028.018.036.025.03.021.034.025.028.021.038.025.021.016c.048.032.1.067.145.1l.023.016.042.028.023.016.041.027.026.018.039.027.025.018.039.025.028.02.039.025.018.011.149.1.024.016.04.028.024.016.041.027.023.016.043.03.023.016.041.028.025.016c.056.037.109.074.166.11l.046.032.02.014.044.027.023.016.041.028.026.016.042.027.023.016.043.028.018.014c.053.032.1.066.156.1l.018.012.041.027.023.016.044.028.023.014.041.027.025.016.043.028.021.014.046.03.012.009.168.1.016.011.043.028.023.016.044.025.023.016.043.028.026.013.041.028.025.016.043.025.021.014.1.062.009,0,.047.03.023.014.043.025.025.016.044.028.023.014.044.028.023.012.048.03.014.009c.055.034.113.069.171.1l.011.009.05.03.016.009.049.03.023.014.043.025.07.041.021.014.064.037c.053.032.108.064.161.094l.023.014.043.025.025.016.044.025.026.016.046.025.021.014.049.025.021.013.047.027.005,0,.127.073.048.028.023.014.044.025.026.014.044.025.027.016.044.025.023.012.064.037c.055.032.113.064.168.094l.018.012.046.025.023.014.045.025.026.013.043.025.028.014.044.025.023.012.047.027.014.007c.058.032.114.064.175.1l.013.007.05.028.021.011.048.025.023.014.048.025.023.011.048.028.018.009.051.027h0c.062.034.124.067.185.1l.018.009.049.027.023.012.048.025.023.012.046.025.025.012.046.025.021.012c.055.03.109.057.167.087l.021.011.046.023.025.014.046.025.026.012.048.025.024.011.048.025.025.014.045.023.021.009c.055.03.109.057.165.085l.026.014.045.021.028.014.043.023.074.037.026.014.046.023.025.011.05.025.007,0,.179.09.026.011.073.037.044.023.03.014.043.023.025.012.049.023.023.011c.06.03.117.057.177.085l.013.007.048.023.025.014.046.02.028.014.046.021.028.014.048.023.023.012.05.023.017.009.179.083.018.009.048.023.027.014.047.019.027.014.047.021.029.016.044.019.03.016.044.021.025.011c.039.016.073.032.11.051l.007,0,.047.021.028.014.042.018.034.016.043.019.033.016.043.018.03.014.046.021.03.012.044.021.027.012.092.041.028.012.045.021.028.014.046.019.033.014.043.021.03.011.046.021.03.014.046.018.03.014.159.069.034.014.042.018.035.014.041.018.035.016.043.016.033.016.043.018.032.014.043.018.033.014.108.044.007,0,.045.021.033.014.043.016.032.014.044.019.032.014.045.019.03.014.045.019.03.011.048.021.021.009.094.036.032.014.044.019.034.014.043.016.035.014.041.016.037.016.041.016.037.016.041.016.034.014.159.062.034.014.044.018.034.012.041.018.035.014.043.016.037.014.04.016.035.014.043.016.034.014.1.037.021.007.044.018.035.011.041.016.037.014.041.016.038.014.079.032.041.014.036.014.083.032.066.025.046.016.039.014.039.016.041.014.039.016.039.014.042.014.037.014.045.016.034.013.046.016.035.014.075.028.03.009.051.018.036.014.041.014.04.014.041.016.038.014.044.016.032.011.082.028.053.021.028.009.076.028.034.009.048.019.035.012.043.016.037.011.046.016.034.011.045.016.037.014.048.016.033.011.059.018.037.014.1.032.045.016.038.011.043.016.036.012.047.014.036.014.046.016.035.009.05.016.032.011.079.025.025.009.055.016.036.011.045.016.037.011.046.014.036.011.046.016.035.012.047.014.035.011.052.016.028.009.078.025.036.011.046.014.037.011.045.014.037.012.046.014.037.012.046.014.035.011.05.016.032.009.06.018.038.012.064.021.038.009.043.014.041.013.042.012.038.011.044.014.039.012.046.014.034.011.053.014.03.009.1.027.067.021.032.009.05.014.035.012.048.011.036.012.045.014.038.009.048.014.036.009.064.018.018,0,.081.023.03.009.055.016.035.009.046.012.039.011.046.012.038.011.044.011.038.012.048.014.035.009.067.018.016,0,.083.023.028.007.058.014.032.009.051.014.035.009.05.014.034.009.051.013.032.007.055.016.03.007c.055.014.11.03.168.043l.082.021.035.009.051.014.035.009.05.011.035.009.051.014.034.007.058.016.028,0,.08.021.029.007.055.014.035.009.05.012.04.011.046.009.037.011.048.011.037.007.053.014.032.007.068.019.016,0,.083.021.03.007.055.012.036.009.048.011.037.009.048.011.036.007.053.014.032.007.055.014.03.007.085.018.011,0,.074.019.03.007.052.011.037.007.048.012.039.007.048.012.034.009.053.011.034.007.06.011.026.007c.028,0,.055.011.085.018l.018,0,.068.014.028,0,.055.014.034.007.053.012.038.007.048.009.037.009.053.012.035.007.065.014.021,0,.085.018.028.007.092.018.05.009.04.009.047.009.039.007.048.009.037.007.05.011.036.007.083.016h0l.083.016.026,0,.062.011.029.007.055.012.034,0,.053.011.036.007.052.009.033.007.062.009.026,0,.085.016.023,0,.064.011.03.007.057.009.034.007.053.009.038.007.05.009.036.007.058.009.027,0,.074.014.016,0,.087.014.019,0,.068.012.03,0,.057.012.032,0,.055.009.035,0,.057.011.03,0,.065.009.023,0c.057.009.117.021.177.029l.025,0,.062.009.033,0,.055.009.035.007.055.007.034.007.055.009.033,0,.068.009.019,0,.089.011.016,0,.072.012.028,0,.062.009.032,0,.057.009.032,0,.053.009.039,0,.053.007.034.007.064.009.024,0,.087.011.025,0,.1.014.055.007.035,0,.055.009.034,0,.055.007.035,0,.057.007.032,0,.178.023.027,0,.062.007.09.014.032,0,.058.007.032,0,.06.009.03,0c.023,0,.044.007.067.009l.023,0c.031,0,.058.007.09.011h.013l.075.009.028,0,.06.007.037,0,.053,0,.091.012.035,0,.055.007.034,0,.066.007.024,0c.028,0,.06,0,.088.009l.025,0,.064.007.035,0,.091.011.053,0,.037,0,.058,0,.032,0,.057.007.035,0,.075.007.011,0c.03,0,.06.007.09.009l.03,0,.06.007.034,0,.055.007.04,0,.053,0,.034,0,.058,0,.034,0,.063,0,.027,0,.089.009.018,0,.071.007.09.007.034,0,.058.007.034,0,.057,0,.032,0,.06.007.033,0,.067.007h.023l.092.007.018,0,.072.007.032,0,.057,0,.035,0,.055,0,.038,0,.055,0,.035,0,.057,0,.035,0,.071.007h.019l.087.007.034,0,.058,0,.037,0,.053,0,.039,0,.055,0,.036,0,.057,0,.033,0,.062,0,.03,0,.09,0h.016l.073,0,.033,0,.059,0,.038,0,.053,0,.041,0,.051,0,.041,0,.055,0,.036,0,.064,0h.027l.09,0,.032,0,.058,0,.039,0,.053,0,.038,0,.053,0,.038,0,.055,0,.037,0,.06,0h.033c.025,0,.051,0,.075,0l.016,0,.089,0,.027,0,.065,0h.035l.055,0,.042,0,.05,0,.041,0h.054l.038,0,.057,0h.033l.085,0,.023,0,.076,0h.032l.06,0H535l.057,0h.034l.055,0h.039l.057,0h.035l.069,0h.023c.03,0,.062,0,.094,0h.09l.035,0h.091l.06,0h.129l.061,0h.124c.032,0,.062,0,.094,0h.592c29.188,0,52.847-19.718,52.847-44.039v-.379l0-.037v-.1l0-.039v-.1l0-.037V223.2l0-.034V223.1l0-.037v-.071l0-.03v-.069l0-.039v-.1l0-.069v-.014l0-.058v-.021l0-.046v-.027l0-.042,0-.028v-.041l0-.027,0-.044v-.028l0-.039,0-.032,0-.037v-.03l0-.039,0-.03,0-.042v-.027l0-.039,0-.032,0-.037v-.03l-.005-.039v-.03l0-.041,0-.028,0-.039,0-.03,0-.041,0-.028,0-.046,0-.023,0-.055v-.014l-.006-.067V221.4l-.006-.059v-.016l0-.053v-.021l-.005-.046,0-.03,0-.039,0-.029v-.037l0-.03,0-.039,0-.03,0-.039,0-.03,0-.039,0-.03,0-.037,0-.03,0-.039,0-.03,0-.039,0-.03,0-.037,0-.034,0-.034,0-.032,0-.037,0-.032,0-.039,0-.027,0-.042,0-.027,0-.06,0-.009-.006-.067v-.018l-.007-.051,0-.025,0-.041,0-.028,0-.041,0-.028,0-.041,0-.028,0-.039,0-.03,0-.037,0-.03-.005-.039v-.027l0-.041,0-.027-.007-.039,0-.03-.005-.037,0-.032,0-.037,0-.03,0-.039,0-.027-.005-.039,0-.03-.007-.039,0-.028-.006-.044,0-.023-.006-.046,0-.023-.006-.06,0-.007-.009-.069,0-.021-.006-.046,0-.025,0-.044-.005-.023,0-.044-.005-.025,0-.041-.011-.069,0-.025-.011-.069,0-.039,0-.027-.008-.039,0-.03-.005-.037-.007-.03,0-.039-.011-.069,0-.025-.011-.069-.005-.041,0-.025-.007-.044,0-.023-.007-.049,0-.018-.007-.053,0-.014c-.006-.046-.014-.09-.021-.136l0-.009-.012-.06v-.014l-.007-.051-.006-.025-.012-.069L589,217.4l-.016-.1-.007-.037-.007-.032-.006-.035-.005-.03-.007-.039,0-.028-.009-.039,0-.028-.007-.039,0-.027-.009-.041-.006-.025-.006-.041-.006-.025-.009-.044,0-.023-.009-.044,0-.023-.011-.048,0-.016c-.013-.069-.027-.133-.04-.2l0-.009-.011-.057,0-.016-.011-.051,0-.018-.014-.069-.009-.044-.006-.025-.009-.041,0-.023-.009-.044,0-.023-.009-.044,0-.023-.009-.044-.007-.023-.009-.044,0-.023-.009-.044,0-.023-.012-.044,0-.021-.009-.046,0-.021-.011-.05-.006-.014-.011-.055,0-.011-.013-.059,0-.007c-.016-.067-.032-.133-.048-.2l0-.009-.014-.058-.016-.064-.006-.023-.011-.044,0-.021-.011-.044,0-.023-.012-.044-.006-.023-.009-.041-.007-.025-.009-.042-.006-.023-.011-.042-.005-.025-.011-.041-.007-.025-.009-.042-.006-.023-.011-.044-.006-.021-.011-.046-.006-.021-.011-.049-.005-.016-.016-.053,0-.012-.016-.062,0,0c-.018-.067-.037-.131-.055-.2v-.007l-.019-.059,0-.012-.014-.053,0-.014-.014-.05,0-.016-.016-.051-.005-.018-.013-.046-.005-.019-.013-.048-.007-.018-.011-.046-.007-.018-.011-.046-.007-.021-.014-.044,0-.023-.014-.044-.007-.021-.013-.046,0-.019-.014-.046-.006-.019-.014-.05,0-.014-.016-.055-.005-.012c-.025-.087-.052-.172-.08-.262l-.021-.064,0-.007-.016-.057-.007-.014-.016-.051,0-.014-.014-.051,0-.016-.016-.048-.008-.016-.013-.048-.007-.018-.016-.046,0-.018-.016-.046,0-.019-.016-.048-.007-.016-.013-.046-.007-.018-.016-.051,0-.014-.019-.053,0-.009-.021-.057,0-.007-.018-.057,0-.007c-.045-.131-.089-.26-.136-.391l0,0-.021-.057,0-.012-.018-.053-.006-.016-.017-.046-.005-.016-.018-.048-.007-.018-.016-.046-.006-.016-.016-.046-.006-.02-.016-.046-.007-.016-.018-.048,0-.016-.017-.048-.006-.014-.018-.048-.006-.018-.019-.05,0-.011-.021-.055,0-.009c-.033-.085-.065-.17-.1-.255v0l-.023-.062,0-.009-.02-.052-.005-.014-.021-.05,0-.012-.018-.05-.006-.014-.019-.048-.006-.016-.018-.046-.006-.018-.019-.048,0-.014-.027-.064-.019-.048-.006-.014-.019-.048-.006-.016-.019-.05-.007-.012-.021-.053,0-.009-.025-.062-.159-.381,0,0-.025-.059,0-.007-.023-.055,0-.009-.024-.055,0-.009-.023-.053,0-.011-.021-.051-.007-.011-.02-.051-.006-.014-.023-.048-.007-.013-.021-.048,0-.014-.023-.05-.005-.012-.025-.055,0,0-.028-.06v0c-.075-.17-.151-.333-.229-.5l0-.007-.025-.057-.005,0-.026-.055,0-.009-.023-.053-.006-.012-.023-.048,0-.014-.025-.05-.006-.012-.025-.053,0-.007-.028-.055,0-.007-.028-.055,0-.007-.027-.058,0,0c-.069-.145-.14-.29-.213-.432v0l-.03-.06,0,0-.027-.058,0-.007-.057-.115,0-.011-.026-.05-.007-.009-.025-.051-.005-.011-.025-.051-.007-.011-.025-.048-.007-.014-.025-.048,0-.009-.028-.053-.032-.064-.005,0-.03-.058v0c-.087-.163-.172-.324-.261-.487l0,0-.03-.055,0,0-.03-.055-.005-.007-.029-.055-.005,0-.028-.053,0-.009-.031-.053,0-.007-.03-.053,0-.007-.03-.053-.005-.009-.029-.053,0,0-.032-.059h0c-.089-.161-.181-.322-.273-.483l0,0-.032-.058,0,0-.036-.055v0l-.033-.055,0-.009-.03-.05-.005-.007-.029-.053-.005-.007-.033-.052,0-.007-.032-.053,0-.007-.046-.055,0,0-.035-.058c-.119-.2-.242-.4-.362-.595l-.038-.057,0,0-.034-.055,0,0-.037-.055v0l-.035-.053,0-.007-.036-.053,0,0-.037-.055v0l-.075-.117q-.207-.32-.421-.641v0l-.037-.055,0,0-.035-.053,0,0-.036-.053,0,0-.035-.053,0,0-.039-.055v0c-.158-.232-.317-.46-.48-.689v0c-.028-.037-.055-.074-.08-.113h0l-.04-.057-.041-.055v0c-.246-.342-.5-.68-.754-1.015-.029-.036-.057-.073-.088-.11v0c-.2-.26-.4-.519-.611-.774v0l-.043-.053-.042-.053,0,0-.041-.053h0c-.223-.274-.448-.547-.678-.816h0c-8.752-10.257-22.646-17.257-38.55-18.385l-.311-.018c-.076-.007-.151-.012-.227-.016-.119-.009-.239-.016-.361-.023h-.009c-.1-.007-.195-.011-.294-.016h-.013l-.038,0c-.332-.016-.666-.032-1-.044q-.249-.007-.5-.007c-.154,0-.308,0-.462.007-.317-.023-.637-.034-.958-.039Zm0,0" transform="translate(-202.015 -74.235)" fill="#d34000"/>
  <path id="Path_368" data-name="Path 368" d="M237.884,253.914a44.038,44.038,0,1,1-44.039-44.039A44.04,44.04,0,0,1,237.884,253.914Zm0,0" transform="translate(-61.71 -86.57)" fill="#d34000"/>
  <path id="Path_369" data-name="Path 369" d="M195.593,322.627a52.846,52.846,0,1,1-52.847-52.846A52.845,52.845,0,0,1,195.593,322.627Zm0,0" transform="translate(-37.029 -111.245)" fill="#d34000"/>
  <path id="Path_370" data-name="Path 370" d="M229.041,359.641v105.69a35.336,35.336,0,0,0,35.231,35.231H369.963a17.614,17.614,0,1,1,0,35.229H17.659a17.614,17.614,0,1,1,0-35.229H123.35a35.335,35.335,0,0,0,35.231-35.231V359.641Zm0,0" transform="translate(-0.019 -148.258)" fill="#ec590a"/>
  <path id="Path_371" data-name="Path 371" d="M329.523,497.065V514.68a70.46,70.46,0,0,0,70.46,70.46h70.883a17.614,17.614,0,0,0,0-35.229H399.983a35.337,35.337,0,0,1-35.231-35.231V497.065a17.615,17.615,0,1,0-35.229,0Zm0,0" transform="translate(-135.73 -197.607)" fill="#b22a00"/>
  <path id="Path_372" data-name="Path 372" d="M347.137,359.641a17.615,17.615,0,0,1,17.616,17.615v70.46a17.615,17.615,0,1,1-35.229,0v-70.46A17.615,17.615,0,0,1,347.137,359.641Zm0,0" transform="translate(-135.73 -148.258)" fill="#b22a00"/>
  <path id="Path_373" data-name="Path 373" d="M287.233,359.641h35.229a17.614,17.614,0,1,1,0,35.229H287.233a17.614,17.614,0,1,1,0-35.229Zm0,0" transform="translate(-111.055 -148.258)" fill="#b22a00"/>
  <path id="Path_374" data-name="Path 374" d="M394.7,497.065a17.616,17.616,0,1,1-17.616-17.616A17.615,17.615,0,0,1,394.7,497.065Zm0,0" transform="translate(-148.063 -197.607)" fill="#ec590a"/>
  <path id="Path_375" data-name="Path 375" d="M340.077,484.728A35.23,35.23,0,1,1,304.848,449.5,35.23,35.23,0,0,1,340.077,484.728Zm0,0" transform="translate(-111.055 -185.27)" fill="#ff690b"/>
  <path id="Path_376" data-name="Path 376" d="M304.848,467.112A17.616,17.616,0,1,1,287.233,449.5,17.616,17.616,0,0,1,304.848,467.112Zm0,0" transform="translate(-111.055 -185.27)" fill="#ff7a27"/>
  <path id="Path_377" data-name="Path 377" d="M330.931,462.605a8.808,8.808,0,0,0-6.218,15.044,17.617,17.617,0,0,1-22.973,26.6,8.807,8.807,0,1,0-10.556,14.1c.322.242.645.475.977.7l0,0,.136.094.007,0,.03.021.005.005.031.021,0,0,.1.068,0,0,.03.021.006,0,.032.02,0,.005.1.069h0l.028.021.011.007.025.016.014.009.025.018.013.009.039.026.023.013.018.014.023.014.018.013.042.028.02.011.021.014.037.025.042.028.016.009.023.016.019.012.027.018.012.007.039.025,0,0,.041.025.014.009.027.016.016.011.027.019.014.006.034.023,0,.005.044.028h0l.041.027.007,0,.037.023.006,0,.041.026,0,0,.085.053.007.006.039.023,0,0,.179.11a35.017,35.017,0,0,0,13.862,4.893l.053.007h0l.216.028h0l.164.018.053.007h.006l.049,0,0,0c.037,0,.074.006.111.012l.05,0h.009l.047.006h.009l.048,0h0c.037,0,.071.009.108.011l.008,0,.044,0h.012l.045.005h.005c.036,0,.071.009.11.011h0l.048,0,.007,0,.048.005h.007l.108.009h0l.051,0h.009l.044,0h.009l.163.014h.007l.046,0h.01l.045.005h.007l.108.006.009,0,.042,0h.014l.043,0h.01l.049,0h0l.055,0h.007l.044,0,.016,0,.037,0h.016l.042,0,.011,0,.106.005h.011l.042,0h.013l.039,0,.013,0,.051,0h0l.053,0h.011l.041,0,.016,0,.037,0h.016l.044,0h.007l.053,0h.053l.017,0h.039l.016,0h.039l.012,0,.106,0,.016,0h.037l.018,0h.053l.044,0h.009l.053,0h.014l.037,0h.071l.039,0h.064l.013,0h.06l.032,0h.071l.1,0h.018l.037,0h.245l.035,0h.351a35.23,35.23,0,0,0,35.231-35.231v-.342l0-.038v-.166l0-.025v-.083l0-.029v-.055l0-.03v-.085l0-.034v-.021l0-.037v-.077l0-.048v-.007l0-.041v-.055l0-.019v-.055l0-.039v-.018l0-.037v-.052l0-.023v-.03l0-.027,0-.037v-.018l0-.044v-.014l0-.04v-.014l0-.041v-.016l0-.048v-.006l0-.049V488.3l0-.055,0-.053v0l0-.051v-.007l0-.05v0c0-.055-.007-.11-.009-.166v-.005l0-.05,0,0,0-.049v-.009l0-.043,0-.011,0-.046v-.009l0-.05v-.007l0-.053v0l0-.053v0l0-.053h0l0-.053V487.4l-.005-.053v0l-.014-.166v0l0-.05v0l0-.053h0l0-.048v-.007l-.005-.055a35.038,35.038,0,0,0-6.544-17.5l0,0-.059-.083-.005-.006c-.018-.025-.039-.053-.057-.078l0,0-.03-.039,0,0-.027-.038-.01-.009-.023-.035-.007-.006-.025-.035-.008-.011-.025-.03-.007-.011-.023-.03-.011-.016-.021-.028-.011-.014-.034-.045-.017-.023-.018-.023-.014-.018-.019-.023-.034-.046-.011-.014-.021-.03-.011-.014-.026-.034,0-.006-.023-.031-.034-.041-.009-.014-.023-.029-.009-.011-.06-.079,0,0-.03-.039,0,.007-.032-.037,0-.005a35.322,35.322,0,0,0-2.878-3.245A8.781,8.781,0,0,0,330.931,462.605Zm0,0" transform="translate(-118.487 -190.67)" fill="#d34000"/>
  <path id="Path_378" data-name="Path 378" d="M65.227,586.924a17.616,17.616,0,1,1-17.615-17.615A17.615,17.615,0,0,1,65.227,586.924Zm0,0" transform="translate(-12.354 -234.621)" fill="#ec590a"/>
  <path id="Path_379" data-name="Path 379" d="M160.362,574.586a35.23,35.23,0,1,1-35.229-35.23A35.23,35.23,0,0,1,160.362,574.586Zm0,0" transform="translate(-37.029 -222.284)" fill="#ec590a"/>
  <path id="Path_380" data-name="Path 380" d="M223.787,594.273a17.928,17.928,0,0,0-17.126,12.685c-.03.1-.06.2-.09.308l0,.007-.012.044-.009.023-.007.028c-.018.057-.035.113-.053.17l0,.007-.014.048,0,.012-.012.043,0,.013-.014.038,0,.021-.009.03-.016.048-.028.085a17.914,17.914,0,0,0,11.689,22.2,17.329,17.329,0,0,0,21.888-11.53l.563-1.86a17.324,17.324,0,0,0-11.5-21.631c-.108-.035-.218-.064-.326-.1A17.71,17.71,0,0,0,223.787,594.273Zm0,0" transform="translate(-84.697 -244.905)" fill="#b22a00"/>
  <path id="Path_381" data-name="Path 381" d="M125.133,556.971a17.615,17.615,0,1,1-17.615-17.615A17.614,17.614,0,0,1,125.133,556.971Zm0,0" transform="translate(-37.029 -222.284)" fill="#ffaf7d"/>
  <path id="Path_382" data-name="Path 382" d="M105.642,601.156a35.23,35.23,0,0,0,49.823-49.823l-.193-.193-.016-.014-.023-.026-.016-.012-.037-.037-.032-.03-.009-.01-.037-.04-.009-.006-.069-.068-.016-.014-.023-.023-.016-.014-.039-.04-.025-.023-.014-.014-.027-.024-.041-.041-.009-.008-.039-.039,0,0-.037-.034-.009-.01-.03-.028-.014-.011-.064-.064-.014-.011-.028-.026-.011-.011-.03-.028-.009-.008-.034-.031-.007-.007-.08-.075,0,0-.039-.034,0,0-.034-.033-.009-.006-.032-.03-.009-.007-.03-.03-.012-.008-.032-.03-.007-.007-.037-.033,0,0c-.055-.05-.11-.1-.166-.147h0l-.039-.036,0,0-.039-.034,0-.005-.041-.035c-.1-.087-.2-.175-.3-.259a35.007,35.007,0,0,0-8.426-5.4,8.807,8.807,0,0,0-7.273,16.042A17.619,17.619,0,1,1,118.1,588.7a8.808,8.808,0,1,0-12.456,12.456Zm0,0" transform="translate(-42.453 -223.941)" fill="#d34000"/>
  <path id="Path_383" data-name="Path 383" d="M244.943,586.924a17.616,17.616,0,1,1-17.616-17.615A17.615,17.615,0,0,1,244.943,586.924Zm0,0" transform="translate(-86.382 -234.621)" fill="#ec590a"/>
  <path id="Path_384" data-name="Path 384" d="M257.279,608.069a8.808,8.808,0,1,1-8.807-8.807A8.807,8.807,0,0,1,257.279,608.069Zm0,0" transform="translate(-98.718 -246.957)" fill="#d34000"/>
  <path id="Path_385" data-name="Path 385" d="M77.565,608.069a8.808,8.808,0,1,1-8.808-8.807A8.809,8.809,0,0,1,77.565,608.069Zm0,0" transform="translate(-24.69 -246.957)" fill="#d34000"/>
  <path id="Path_386" data-name="Path 386" d="M424.657,586.924a17.615,17.615,0,1,1-17.615-17.615A17.615,17.615,0,0,1,424.657,586.924Zm0,0" transform="translate(-160.402 -234.621)" fill="#ec590a"/>
  <path id="Path_387" data-name="Path 387" d="M604.372,586.924a17.616,17.616,0,1,1-17.616-17.615A17.615,17.615,0,0,1,604.372,586.924Zm0,0" transform="translate(-234.43 -234.621)" fill="#ec590a"/>
  <path id="Path_388" data-name="Path 388" d="M519.792,574.586a35.23,35.23,0,1,1-35.229-35.23A35.23,35.23,0,0,1,519.792,574.586Zm0,0" transform="translate(-185.077 -222.284)" fill="#ec590a"/>
  <path id="Path_389" data-name="Path 389" d="M502.179,565.779a26.423,26.423,0,1,1-26.424-26.423A26.425,26.425,0,0,1,502.179,565.779Zm0,0" transform="translate(-185.077 -222.284)" fill="#ff7a27"/>
  <path id="Path_390" data-name="Path 390" d="M466.948,578.116a8.808,8.808,0,1,1-8.808-8.808A8.809,8.809,0,0,1,466.948,578.116Zm0,0" transform="translate(-185.077 -234.621)" fill="#ffaf7d"/>
  <path id="Path_391" data-name="Path 391" d="M514.517,556.971A17.616,17.616,0,1,1,496.9,539.355,17.616,17.616,0,0,1,514.517,556.971Zm0,0" transform="translate(-197.413 -222.284)" fill="#ffaf7d"/>
  <path id="Path_392" data-name="Path 392" d="M519.135,605.888l.055-.056.023-.024.1-.1.02-.023.039-.039.019-.016.021-.023.038-.04.018-.02.06-.06.018-.02.021-.019.055-.062.021-.018.018-.021.039-.039.021-.023.018-.016.021-.023.016-.021.021-.019.018-.019.039-.04.018-.023.037-.036.021-.024.014-.013.023-.025.018-.019.032-.035.025-.027.017-.016.021-.026.038-.038.016-.021.02-.02.016-.019.023-.023.016-.019.037-.042.021-.021.036-.041.018-.017.021-.023.016-.019.018-.021.019-.023.021-.019.016-.021.021-.02.016-.021.021-.021.016-.018.019-.023.018-.018.021-.023.016-.019.021-.024.016-.018.021-.023.016-.018.016-.022.02-.023.016-.017.021-.024.016-.02.018-.023.038-.04.021-.021.023-.028.041-.048.023-.026.015-.019.019-.023.021-.023.016-.018.018-.024.016-.019.036-.041.019-.023.016-.021.055-.062.016-.02.055-.062.016-.021.018-.024.016-.018.021-.023.015-.019.02-.023.016-.02.018-.022.016-.02.018-.021.018-.023.016-.018.019-.024.016-.019.018-.023.016-.02.016-.019.021-.025.011-.013.023-.03.005-.005.029-.036.007-.009.117-.145.011-.013.021-.026.012-.016.02-.025.014-.019.02-.026.014-.016.018-.023.016-.021.018-.021.017-.02.018-.023.016-.021.016-.023.016-.018.018-.023.016-.021.017-.023.016-.021.018-.023.016-.019.018-.021.014-.019.018-.025.016-.021.016-.023.017-.019.018-.023.016-.02.016-.023.016-.018.018-.026.014-.019.019-.026.013-.017.018-.023.013-.017.021-.028,0-.01.082-.11.009-.009.018-.028.013-.016.018-.025.013-.019.018-.025.011-.019.021-.025.011-.016.021-.028.011-.016.021-.028.011-.015.02-.027.011-.016.021-.026.011-.018.018-.026.014-.018.018-.026.013-.019.018-.024.011-.017.021-.027.012-.016.021-.028.011-.016.018-.027.011-.016.021-.028.011-.013.018-.03.014-.017.018-.027.011-.013.021-.031.01-.013.021-.03,0-.007.028-.038,0,0,.145-.206,0-.007.02-.03.009-.016.021-.03.009-.011.021-.03.011-.017.018-.027.011-.016.018-.027.012-.017.02-.03.009-.014.019-.03.011-.016.018-.028.011-.017.018-.028.011-.018.018-.027.011-.016.018-.028.012-.017.018-.03.011-.013.018-.03.009-.013.023-.032.005-.007.026-.037v0c.085-.129.168-.257.253-.389l0,0,.024-.035.007-.011.02-.032.007-.013.023-.033.034-.058.021-.031.027-.047.009-.011.021-.034.007-.009.028-.047.02-.031.007-.014.021-.032.028-.046.007-.01.028-.046.021-.031.028-.047,0-.009.023-.038.005-.006c.087-.145.176-.293.261-.44l0,0,.026-.041,0,0,.023-.042,0-.006.026-.04,0-.006.023-.038.005-.007.02-.039,0-.007.023-.038,0-.006.024-.039,0,0,.023-.041,0-.007.023-.038,0,0,.025-.042v0c.119-.209.237-.418.352-.63l0,0,.024-.042,0,0,.021-.04,0-.006.023-.046.023-.042,0,0,.046-.087h0c.179-.336.349-.674.516-1.013l.024-.046.021-.047.024-.045,0,0,.021-.044v0a35.32,35.32,0,0,0,3.092-20.589q-.076-.5-.165-1v0c-.057-.317-.119-.63-.183-.945v0l-.009-.044,0-.008-.009-.043v-.007l-.009-.041,0-.01-.009-.041,0-.006-.007-.044,0-.007-.009-.043,0-.006-.01-.046V573.4l-.011-.044v0l-.009-.045,0-.008-.009-.042v0c-.037-.163-.075-.325-.113-.489l0,0-.009-.04,0-.013-.009-.035-.005-.016-.006-.035-.005-.014-.009-.035,0-.016-.009-.03,0-.021-.007-.031,0-.02-.009-.03,0-.019-.007-.032,0-.017-.009-.03-.006-.021-.009-.032,0-.018-.007-.03,0-.021-.009-.03,0-.021-.007-.03-.007-.021-.006-.03,0-.016-.006-.034-.005-.016-.009-.035-.013-.048-.005-.018c-.014-.052-.028-.106-.041-.161l-.007-.02-.013-.051-.007-.03-.007-.018-.009-.033-.005-.018-.009-.03,0-.023-.007-.025-.007-.024-.009-.027-.005-.023-.01-.028-.006-.023-.008-.028-.007-.023-.006-.025-.007-.023-.006-.028-.007-.024-.007-.024-.014-.05-.009-.027-.007-.023-.007-.026-.007-.023-.009-.027-.007-.023-.007-.028-.007-.023-.01-.028,0-.023-.016-.048-.009-.031-.005-.018-.011-.039,0-.01-.029-.1,0-.011-.013-.038,0-.011-.011-.039-.016-.048-.006-.019-.01-.033,0-.018-.011-.032-.005-.016-.011-.034,0-.019-.012-.032,0-.015-.011-.035-.005-.016-.016-.048-.011-.037,0-.015-.016-.049-.011-.036-.005-.014-.011-.037,0-.011-.011-.037,0-.013-.011-.037-.005-.011-.014-.041,0-.009-.032-.1,0,0c-.044-.135-.09-.268-.138-.4v0l-.035-.1,0-.006-.016-.047-.019-.048v-.007l-.018-.044v0l-.016-.046,0,0-.016-.046,0,0-.016-.045,0-.007-.016-.045,0,0c-.089-.25-.184-.5-.282-.749v0l-.058-.147v0l-.02-.049h0c-.028-.067-.053-.129-.079-.2v0a35.032,35.032,0,0,0-6.058-9.853,8.807,8.807,0,0,0-12.4-.843c-.159.139-.31.28-.457.425a8.811,8.811,0,0,0-.414,12,17.621,17.621,0,0,1-21.739,27.011,8.808,8.808,0,0,0-8.426,15.47,35.237,35.237,0,0,0,18.879,4.218h0c.492-.027.983-.067,1.473-.115.087-.01.171-.018.257-.026h0c.071-.009.142-.015.215-.026l.044,0c.071-.007.142-.016.214-.026h0l.041-.005h0l.168-.02h.005l.039,0,0,0c.069-.007.141-.016.21-.027h.006l.039-.006h0c.057-.006.115-.016.172-.023l.039-.006h0l.211-.03.006,0,.039,0,0,0c.071-.009.14-.02.211-.031h0l.042-.006,0,0c.055-.007.111-.015.168-.026h0l.041-.007c.072-.014.143-.025.214-.036l.214-.036h0l.036-.008.009,0,.039-.006h0c.055-.01.113-.021.17-.03l.04-.01h0c.141-.025.283-.053.423-.08h0l.039-.009h.005l.209-.041,0,0,.038-.007h0l.167-.038h0l.039-.008h.009l.036-.009h0c.055-.012.11-.023.166-.037h0l.039-.01h0l.168-.039.04-.009h0l.039-.009h.007c.052-.014.108-.026.163-.039h0l.04-.009.007,0,.039-.01h0l.164-.039.006,0,.038-.009h.006c.053-.013.106-.028.161-.039l.007,0,.035-.009.011,0,.036-.009h0l.124-.032h0l.038-.009.005,0,.046-.011.034-.009h.007l.117-.032h0l.037-.011.009,0,.035-.009.011,0,.154-.04.009,0,.035-.009.011-.005.034-.009.007,0c.053-.013.106-.028.158-.044l.007,0,.046-.011.035-.012h0l.122-.034h0l.037-.011.009,0,.034-.009.007,0,.161-.048h0l.036-.011.007,0,.166-.048.037-.012.006,0,.035-.01.014,0,.032-.012h0l.12-.035.007,0,.034-.01.009,0,.035-.009.011,0c.05-.014.1-.032.153-.048l.009,0,.035-.011.009,0,.034-.011h.005c.039-.013.078-.024.119-.039h0l.048-.015.032-.011.009,0c.053-.016.1-.034.156-.05l.041-.014.012,0,.032-.011.007,0c.039-.011.077-.026.116-.04h0l.037-.014h.009l.034-.011.009,0c.051-.019.1-.034.152-.053l.011,0,.042-.015.036-.012,0,0c.053-.019.106-.034.156-.055l.01,0,.034-.011.009-.006.041-.013c.051-.018.1-.038.154-.058l.009,0,.034-.011.009,0c.05-.019.1-.037.151-.058h.009l.035-.011.009,0,.035-.015.007,0c.05-.017.1-.036.156-.057l.006,0,.046-.017c.051-.019.1-.04.152-.058l.007,0,.034-.014.009,0,.035-.013.006,0,.154-.06.009,0,.034-.013.007,0,.036-.014c.055-.02.106-.044.161-.064l.005,0,.038-.016.163-.066.037-.017h.009l.035-.017.007,0,.154-.064.007,0,.035-.015.009,0,.034-.013.115-.048.009,0,.032-.014.011-.005.032-.013.01,0c.05-.024.1-.045.149-.065l.011,0,.03-.014.013-.007.03-.011.014-.007.1-.046.009,0,.03-.012.014-.007.029-.014.011,0,.037-.019.111-.049.009,0,.033-.013.011-.007.032-.014.007,0,.114-.053,0,0,.034-.013.009-.005.03-.016.014,0,.03-.017.009,0,.1-.045.013-.007.03-.014.042-.02.016-.006.041-.021.1-.046.059-.03.026-.011.018-.009.025-.011,0,0,.066-.031.014-.008.026-.011.021-.009.025-.014.016-.007.028-.013.011-.008c.033-.016.067-.031.1-.048l.016-.008.026-.013.059-.029.028-.016.011,0c.023-.01.044-.021.065-.032l.006,0,.03-.017.012-.006.03-.014.05-.025.1-.053.014-.007.027-.017.013-.006.031-.017.011,0,.033-.016.007,0,.106-.055.009,0,.032-.018.011,0,.03-.016.014-.01.1-.052.056-.028.025-.014.016-.009.026-.014.018-.009.092-.05.016-.006.026-.017.016-.006.028-.017.016-.009.027-.014.012-.007.062-.034.007,0,.03-.016.011-.006.028-.017.016-.009.028-.015.009-.006c.034-.017.066-.036.1-.055l.014-.009.027-.013.016-.009.025-.013.016-.01.028-.015.014-.007.064-.037,0,0,.028-.013.014-.009.028-.015.016-.01.026-.014.015-.011.026-.013.012-.007.053-.031.018-.008.02-.015.021-.011.026-.016.018-.01.023-.013.018-.011.044-.025.021-.011.023-.016.018-.01.026-.016.018-.009.023-.014.021-.014.02-.011.026-.013.039-.024.018-.011.023-.013.021-.015.021-.011.023-.013.021-.014.021-.011.021-.014.021-.011.041-.028.021-.011.023-.014.019-.011.023-.014.021-.013.023-.013.018-.011.044-.027.018-.01.023-.016.018-.011.023-.014.021-.011.041-.027.023-.014.019-.011.039-.027.023-.011.021-.015.023-.013.018-.014.024-.014.021-.013.023-.013.018-.011.038-.026.042-.027.023-.013.018-.013.026-.016.016-.011.026-.016.021-.014.036-.023.023-.015.021-.011.018-.015.024-.013.021-.014.023-.016.016-.011.026-.015.005,0,.06-.04.013-.009.025-.016.016-.011.023-.016.021-.011.023-.016.023-.014.018-.013.037-.026.021-.014.023-.013.062-.042.021-.016.021-.013.023-.015.032-.023.025-.017.018-.011.023-.017.021-.014.023-.014.018-.013.023-.017.019-.014.041-.027.011-.009.028-.017.018-.011.024-.017.062-.042.026-.018.021-.016.035-.023.018-.011.023-.019.018-.011.025-.018.016-.012.028-.018.013-.011.041-.027.005-.006.036-.024.014-.011.026-.019.018-.014.025-.016.016-.011.026-.021.016-.009.04-.03.016-.011.026-.019.018-.012.024-.018.018-.011.026-.021.016-.009.032-.025.011-.007.035-.027.021-.014.024-.015.018-.015.024-.016.018-.014.026-.021.014-.009.042-.03.011-.009.045-.035.024-.019.018-.014.024-.018.016-.011.028-.02.014-.01.039-.029.013-.011.028-.021.016-.011.026-.021.016-.011.025-.018.016-.014.034-.026.014-.009.031-.026.015-.011.027-.02.014-.012.025-.021.018-.012.027-.023.012-.009.039-.03.011-.009.03-.023.013-.011.026-.02.016-.014.026-.019.016-.013.028-.022.013-.011.04-.03.013-.011.025-.019.018-.013.023-.019.018-.014.023-.018.017-.013.036-.03.016-.011.023-.021.042-.031.018-.014.023-.02.016-.012.026-.021.016-.015.037-.028.018-.014.021-.019.018-.013.023-.018.016-.014.026-.02.016-.013.033-.027.011-.009.034-.03.013-.01.026-.023.016-.015.025-.019.016-.015.023-.017.016-.014.036-.032.014-.01.027-.023.014-.013.028-.021.041-.035.011-.011.034-.03,0,0,.039-.035.012-.009.029-.025.011-.011.026-.021.016-.014.028-.023.011-.009.039-.035,0,0,.034-.03.015-.011.025-.021.016-.014.025-.023.014-.012.028-.025.011-.011.039-.032.012-.011.025-.023.016-.015.025-.023.042-.034.011-.011.036-.034h0l.038-.035.011-.011.028-.023.014-.013.025-.023.014-.011.028-.026.011-.009.036-.035.014-.011.025-.023.016-.013.023-.022.016-.015.023-.022.016-.012.028-.026.009-.009.039-.037.009-.007.03-.027.013-.011.023-.023.016-.015.023-.02.015-.017.038-.034,0,0,.034-.033.016-.013.023-.023.016-.013.024-.021.016-.014.037-.036.038-.035.009-.011.028-.026.016-.014.023-.02.014-.016.025-.023.014-.014.03-.027.007-.007.039-.037.009-.009.028-.025.017-.014.073-.073.039-.037,0,0,.033-.03.038-.039.014-.012.112-.112.011-.01.025-.027.014-.013.025-.024.088-.086Zm0,0" transform="translate(-194.741 -228.673)" fill="#d34000"/>
  <path id="Path_393" data-name="Path 393" d="M274.9,497.065a17.616,17.616,0,1,1-17.616-17.616A17.615,17.615,0,0,1,274.9,497.065Zm0,0" transform="translate(-98.718 -197.607)" fill="#ff8d45"/>
  <path id="Path_394" data-name="Path 394" d="M171.105,90.066h-.211l-.682,0-.057,0h-.188a17.616,17.616,0,0,0,.379,35.229h.074l.689,0a17.616,17.616,0,0,0,.168-35.231Zm39.132,8.422a17.619,17.619,0,0,0-7.758,33.441c9.63,4.714,12.665,9.926,12.665,10.983,0,3.363-14.68,17.615-44.039,17.615-23.685,0-39.718-9.55-43.538-16.331A17.615,17.615,0,0,0,96.846,161.44a51.383,51.383,0,0,0,10.738,13.09q.5.445,1.011.882h0l.108.094h0l.108.092,0,0,.182.152v0l.037.03,0,0,.069.057,0,0c.036.03.073.06.108.09l.007,0c.035.028.069.06.1.087l.011.009.1.085.007.007.067.053,0,0,.034.028.009.009.058.046.016.014.03.025.014.012.055.044.016.014.03.023.016.014.051.041.021.016.03.025.039.03.051.041.039.032.023.018.028.023.025.021.041.032.023.018.03.023.025.021.042.032.018.016.032.025,0,0,.064.05.062.048.027.021.051.041.064.05.028.021.025.021.041.032.05.041.023.016.069.055.025.018.039.032.03.021.028.021.023.018.044.035.023.018.03.023.021.016.046.034.021.018.037.027.025.018.035.028.028.018.034.028.025.021.034.025.023.016.064.048.035.028.021.016.046.035.023.016.032.025.021.014.046.037.02.016.032.023.03.023.039.03.021.014.062.048.039.03.021.014.044.032.023.018.034.025.021.016.048.035.021.016.032.023.021.016.046.035.023.016.034.025.018.014.048.037.018.011.106.078.016.014.053.037.055.041.016.012.05.037.014.011.044.032.014.009.053.037.016.011.046.032.064.048.011.007.051.037.007.007.055.037.011.009.055.039.007.007.051.035.014.009.053.039.014.009.041.03.018.011.053.037.012.009.053.037,0,0,.057.039.009.009c.039.025.078.053.117.081l.009.007c.039.03.078.055.117.083l.009.007.122.083,0,0,.062.041,0,0,.057.041,0,0,.062.043,0,0,.06.041,0,0,.057.039.011.007.057.041h0l.06.041.007,0,.122.085,0,0,.062.041,0,0,.06.044h0l.062.041,0,0c.041.028.085.055.124.083l0,0q.648.438,1.312.864l.131.083,0,0,.133.085c10.94,6.965,24.866,11.865,40.368,13.761h0c.062.007.124.014.186.023h0l.186.021,0,0,.186.021h0c.062.009.124.016.186.023h0l.28.032h.007l.181.021h.009l.182.021h.007l.092.012h0c.032,0,.06.007.09.009h0l.094.009.186.021h.011l.179.021h.009l.184.018,0,0,.186.018h0l.184.018h.009l.092.009h0l.186.018h.007l.184.019h.007l.184.016.007,0,.092.007h.007c.028,0,.06.007.087.009h0l.092.009h.007l.092.009.092.007h.011c.06.007.12.011.179.016l.011,0,.182.016h.011l.184.016h0l.094.007c.032,0,.062.007.092.009h.007l.09.007h.009c.06.007.119.011.179.016h.018l.085.007h0l.087.007.014,0,.181.014h.007l.092.007h.009l.083.007h.011l.087.007h.014l.083.007h.009l.087.007.016,0,.177.012.014,0c.062,0,.119.007.179.011l.014,0c.03,0,.06,0,.092,0l.094.007h0l.092.007h.012l.08,0,.012,0c.028,0,.06,0,.087,0l.014,0c.062,0,.119.007.181.012h.012l.092.007.09,0h.014l.087.007h.009l.083,0h.014l.09.007h.009l.085,0h.009l.09.007h.014l.085,0h0l.087,0,.018,0,.175.009h.021l.083,0h.016l.073,0h.021l.087.007h.009l.083,0H165l.087,0h.016l.078,0,.014,0,.087,0,.018,0,.085,0h0l.09,0,.016,0,.087,0,.009,0,.081,0h.018l.085,0h.016l.076,0h.016l.085,0h.018l.083,0h.007l.087,0h.018l.081,0h.009l.083,0,.028,0,.083,0h.007l.08,0h.023l.085,0h.009l.078,0,.021,0,.087,0h.012l.085,0h.007l.092,0h.014l.08,0h.011l.087,0,.018,0,.085,0h.011l.078,0,.023,0,.085,0h.011l.076,0h.021l.085,0h.021l.071,0,.018,0,.083,0h.025l.078,0h.007l.087,0h.023l.085,0h0l.087,0,.023,0h.1l.078,0h.018l.087,0h.014l.076,0h.023l.085,0h.014l.085,0h.11l.184,0h.11l.083,0h.218c.03,0,.057,0,.087,0h.218l.078,0h.207l.085,0h.809c43.779,0,79.27-23.66,79.27-52.847v-.367l0-.032v-.175l0-.032v-.1l0-.016v-.092l0-.023v-.073l0-.021v-.046l0-.046,0-.048v-.048l0-.018v-.048l0-.03v-.018l0-.041v0l0-.046v-.048l0-.018v-.048l0-.03v-.016l0-.039v-.009l0-.046V141.3l0-.028v-.021l-.016-.011v-.018l0-.032v-.014l0-.041v-.007l0-.046v-.016l0-.032v-.018l0-.03,0-.016v-.032l0-.016,0-.046,0-.048v-.012l0-.037,0-.016v-.032l0-.016,0-.032v-.016l0-.041v0l0-.048v-.014l0-.034,0-.014,0-.032v-.018l0-.032,0-.014-.007-.1v-.007l0-.039,0-.014,0-.036,0-.012,0-.037v-.011l-.009-.094v-.011l0-.037,0-.014,0-.032,0-.018,0-.032,0-.014,0-.041,0,0,0-.048,0-.011,0-.035,0-.021,0-.025,0-.021,0-.028,0-.021,0-.03,0-.014,0-.046,0-.014,0-.034,0-.016,0-.03,0-.021,0-.028V139.4l0-.032v-.014l0-.046,0-.016,0-.03,0-.021,0-.028,0-.018,0-.03v-.018l0-.032,0-.014,0-.046v-.018l0-.028v-.018l0-.03v-.018l0-.032,0-.014,0-.035v-.014l-.007-.046v-.014l0-.032,0-.018,0-.028,0-.021,0-.028,0-.018,0-.032,0-.014,0-.046,0-.014,0-.032,0-.018,0-.028,0-.023,0-.025,0-.021,0-.03,0-.016,0-.044,0-.016,0-.03,0-.021,0-.028,0-.018,0-.027,0-.021,0-.028,0-.018-.007-.044,0-.018,0-.028,0-.021,0-.025,0-.021,0-.028,0-.021,0-.032,0-.012L250,137.8v-.009l-.007-.037,0-.016,0-.03,0-.018,0-.03-.007-.055,0-.007-.007-.048v0l-.007-.044,0-.011-.014-.1-.007-.039v-.007l-.007-.046,0-.016,0-.03,0-.018,0-.03-.007-.048,0-.014,0-.034,0-.014-.009-.044,0-.014,0-.034,0-.016,0-.03,0-.018,0-.027,0-.018,0-.03,0-.016-.009-.044,0-.018,0-.028-.009-.046,0-.021,0-.025-.009-.046,0-.021-.007-.044,0-.018-.007-.028,0-.023,0-.02,0-.025,0-.018,0-.028,0-.021,0-.023-.009-.044,0-.021,0-.025,0-.021,0-.025,0-.018,0-.03,0-.021-.007-.027,0-.016-.007-.039,0-.023,0-.03,0-.018,0-.025-.014-.069,0-.025,0-.019-.009-.044,0-.014-.007-.032,0-.018-.007-.025-.014-.069,0-.025,0-.019-.009-.044,0-.014-.007-.035,0-.014-.007-.032,0-.016-.007-.032,0-.014-.009-.035-.011-.057,0-.016-.007-.03,0-.021-.007-.025,0-.018,0-.03,0-.018-.007-.025,0-.021-.009-.039,0-.018-.007-.032,0-.018,0-.025,0-.021-.018-.073,0-.018-.012-.044-.009-.046-.023-.092,0-.021,0-.025,0-.018-.009-.039,0-.018-.007-.032,0-.018-.007-.025-.007-.023,0-.023,0-.021-.007-.025,0-.021-.007-.032-.009-.03,0-.025-.007-.023,0-.023,0-.021-.007-.025,0-.021-.007-.025-.009-.041-.014-.046,0-.018,0-.025,0-.018-.007-.025-.007-.021,0-.025,0-.021-.007-.023-.007-.028-.012-.039,0-.018-.007-.025,0-.021-.007-.023,0-.023-.007-.025,0-.018-.007-.023-.014-.055-.009-.034,0-.016-.007-.025-.007-.023,0-.023-.014-.046,0-.021-.009-.027-.009-.041-.007-.016-.012-.046-.014-.046,0-.023-.007-.023-.007-.021-.007-.028-.009-.034-.007-.025-.007-.02,0-.023-.014-.046-.007-.021-.007-.025,0-.02-.012-.035,0-.018-.009-.032-.007-.021-.007-.025-.007-.021-.007-.023,0-.023-.009-.025,0-.016-.009-.039,0-.014-.012-.037-.007-.02,0-.021-.009-.025-.007-.023,0-.021-.007-.025-.007-.018-.011-.037,0-.014-.011-.037-.014-.048,0-.013-.011-.03-.014-.048-.016-.048,0-.021-.012-.035,0-.016-.016-.048-.007-.023-.007-.021-.007-.023-.007-.021-.009-.03-.009-.028-.009-.03-.007-.021-.007-.023-.007-.021-.02-.069-.016-.048-.009-.025-.011-.035,0-.016-.016-.048-.007-.025-.007-.018-.009-.025-.007-.018-.007-.028-.014-.037-.007-.023-.007-.021-.009-.023-.007-.021-.007-.025-.007-.021-.009-.025-.007-.018-.009-.03-.009-.023-.012-.035,0-.016-.009-.028-.007-.018-.009-.027-.007-.019-.009-.025,0-.018-.012-.03-.007-.025-.011-.032-.007-.018-.009-.025-.007-.021-.009-.023-.007-.023-.009-.023-.007-.021-.009-.023-.021-.062-.009-.023-.007-.021-.009-.023-.007-.021-.007-.023-.009-.023-.007-.021-.012-.027-.007-.018-.014-.039-.007-.021-.009-.023-.007-.021-.009-.025-.007-.018-.009-.025-.014-.041-.018-.046-.007-.018-.007-.021-.009-.023-.007-.023-.009-.021-.007-.021-.009-.025-.021-.055,0-.009-.014-.041-.007-.018-.012-.028-.007-.016-.009-.027-.007-.018-.012-.028,0-.016-.016-.039,0,0-.016-.046,0,0-.014-.037,0-.016-.012-.03-.007-.016-.011-.03,0-.014-.016-.037,0-.007-.018-.044-.007-.018-.009-.025-.007-.018-.012-.028-.007-.018-.012-.025-.007-.018-.012-.032,0-.012-.018-.044,0-.009-.012-.032-.007-.018-.011-.027-.007-.016-.011-.028-.007-.016-.014-.035,0-.009L247.6,129l-.007-.014-.012-.03-.007-.016-.012-.027-.007-.018-.012-.025-.007-.019-.012-.028-.007-.016-.018-.044,0-.014-.011-.025-.018-.046-.009-.018-.011-.028-.007-.016-.014-.035,0-.009-.018-.044,0-.014-.014-.03-.007-.014-.012-.032-.007-.014-.014-.03,0-.014-.014-.032-.007-.014-.018-.042,0-.011-.021-.048-.012-.028-.007-.016-.014-.03,0-.014-.016-.039,0,0-.021-.044,0-.012-.02-.048-.011-.028-.009-.018-.011-.028-.007-.014-.016-.037,0-.007-.039-.087-.007-.014-.014-.032-.007-.011-.014-.032,0-.012-.018-.039,0-.007-.021-.044,0-.009-.016-.034,0-.009-.016-.035-.007-.014-.014-.032,0-.011-.018-.037,0-.007-.041-.087-.007-.014-.014-.03,0-.016-.016-.03,0-.011-.018-.039,0,0-.021-.044,0-.007-.016-.037-.007-.012-.014-.032-.007-.014-.014-.032-.007-.011-.016-.037,0-.007-.021-.046-.021-.039-.007-.018-.021-.041-.016-.03,0-.014-.018-.039,0,0-.025-.051-.018-.039,0-.009-.016-.034,0-.012-.018-.034-.021-.042,0-.014-.023-.048-.021-.041-.007-.016-.044-.087-.016-.034,0-.009-.023-.043,0,0-.018-.039-.007-.009-.016-.032-.007-.016-.016-.03,0-.011-.018-.037,0-.007-.044-.087-.007-.012-.016-.03-.007-.016-.014-.03-.007-.012-.018-.034,0-.009-.021-.044,0-.007-.018-.037-.007-.012-.016-.032-.007-.012-.016-.032,0-.012-.018-.034,0-.009-.046-.087,0-.009-.016-.034-.007-.012-.016-.032-.007-.011-.018-.035,0-.009-.046-.085,0-.009-.018-.035-.007-.012-.016-.032-.007-.011-.018-.035,0-.009-.046-.085-.007-.014-.018-.032,0-.009-.018-.034,0-.009-.023-.039,0,0-.049-.089,0,0-.023-.041,0,0-.021-.039,0-.007-.02-.037,0-.007-.048-.087,0-.007-.021-.037,0-.009-.018-.032-.007-.012-.021-.037,0-.007c-.016-.028-.032-.055-.048-.085l-.007-.012-.016-.03-.011-.018-.014-.025-.009-.014-.018-.032,0-.011-.048-.085-.007-.011-.018-.032-.007-.011-.018-.032-.007-.009-.021-.037,0-.007-.025-.044v0l-.023-.039-.007-.009-.018-.037-.007-.009-.018-.035-.007-.009-.021-.035,0-.009-.05-.085,0-.009-.021-.034,0-.009-.021-.034,0-.009-.023-.041h0l-.051-.087,0,0-.021-.037-.027-.046,0-.007-.023-.039,0,0-.053-.087,0,0-.023-.039,0,0-.025-.039,0-.007-.025-.041h0l-.053-.09-.025-.042,0-.007-.023-.037,0-.007-.023-.034,0-.009-.053-.085,0-.007-.023-.037,0,0-.025-.039,0,0c-.037-.06-.074-.117-.11-.175l0,0-.168-.264c-.037-.06-.076-.115-.113-.175l0,0-.027-.039v0c-.039-.057-.076-.115-.115-.175l-.027-.044,0,0c-.037-.058-.076-.115-.115-.172l0,0-.027-.039,0,0-.028-.041v0l-.057-.085,0,0-.028-.039,0,0-.028-.039v0c-.06-.087-.117-.172-.179-.262-.039-.058-.078-.115-.117-.175h0c-.039-.057-.08-.115-.119-.175h0c-.161-.234-.324-.464-.492-.694v0c-.168-.23-.335-.46-.508-.689l-.129-.17v0c-.044-.055-.087-.112-.131-.17-.064-.085-.129-.17-.2-.255l0,0-.163-.211h0l-.032-.041v0q-1-1.272-2.1-2.506l0,0q-1.83-2.057-3.926-3.986h0c-.138-.129-.278-.257-.418-.386h0l-.423-.379,0,0-.168-.147,0-.007-.039-.032,0,0-.034-.03-.007-.007-.085-.073,0,0-.037-.03-.009-.009-.032-.028-.009-.009-.037-.032,0,0c-.044-.037-.085-.074-.126-.11l-.009-.007-.034-.03-.007-.007-.032-.028-.011-.012-.041-.032-.085-.073-.007-.007-.032-.028-.012-.011-.034-.027-.007,0c-.041-.037-.083-.074-.126-.108l-.009-.009-.034-.028-.007-.007-.034-.03-.009-.007-.085-.071,0,0-.039-.032-.009-.009-.032-.025-.014-.012-.03-.027-.009-.007-.034-.03-.009-.007-.041-.035-.007,0-.034-.03-.011-.009-.032-.025-.012-.012-.027-.023-.016-.011-.034-.028-.007-.007-.044-.034,0,0-.034-.03-.018-.014-.021-.018-.023-.018-.021-.016-.018-.016-.025-.02-.018-.014-.039-.032-.014-.014-.046-.034-.025-.023-.016-.012-.023-.023-.018-.014-.025-.021-.016-.014-.039-.032-.018-.011-.025-.023-.016-.011-.041-.035-.032-.025-.009-.007-.037-.03-.007-.007-.041-.035-.016-.011-.025-.021-.021-.016-.023-.018-.021-.016-.018-.014-.023-.021-.018-.014-.058-.046,0,0-.023-.018-.018-.016-.023-.018-.018-.014-.025-.021-.016-.012-.025-.021-.018-.014-.094-.076-.007,0-.028-.023-.016-.011-.028-.021-.012-.011-.028-.021-.014-.009-.1-.083,0,0-.032-.023-.011-.009-.03-.023-.009-.007-.032-.025-.007-.007-.142-.11-.012-.007-.03-.025-.009-.007-.032-.025,0,0-.11-.085,0,0-.034-.028,0,0-.037-.028,0,0-.034-.025-.007-.007-.147-.11-.007-.007-.034-.025,0,0c-.064-.051-.126-.1-.193-.147l-.039-.03h0l-.037-.03,0,0a77.254,77.254,0,0,0-12.5-7.59A17.476,17.476,0,0,0,210.237,98.488Zm0,0" transform="translate(-38.968 -37.221)" fill="#d34000"/>
  <path id="Path_395" data-name="Path 395" d="M202.653,167.588c0-9.729-11.829-17.615-26.423-17.615s-26.421,7.886-26.421,17.615S161.637,185.2,176.23,185.2,202.653,177.315,202.653,167.588Zm0,0" transform="translate(-61.71 -61.897)" fill="#ff7a27"/>
  <path id="Path_396" data-name="Path 396" d="M316.632.209h-.689l-.069,0h-.218l-.211,0a17.508,17.508,0,0,0-17.218,17.7,17.72,17.72,0,0,0,17.7,17.524h.092l.613,0c21.854,0,35.231,11.406,35.231,17.615S338.5,70.662,316.655,70.669a17.615,17.615,0,0,0,0,35.231c.144,0,.291,0,.436,0,.115,0,.227,0,.343,0h.117c.036,0,.071,0,.11,0h.119l.051,0H318l.05,0h.12l.048,0h.186l.037,0h.172l.016,0h.111l.044,0h.11l.023,0h.053l.037,0h.084l.025,0h.081l.036,0h.081l.03,0h.085l.026,0h.057l.032,0h.053l.03,0h.055l.032,0h.023l.039,0h.053l.02,0h.056l.034,0h.023l.037,0h.057l.016,0h.041l.012,0h.055l.05,0h0l.048,0h.011l.044,0h.014l.042,0h.016l.041,0h.014l.044,0h.011l.046,0h.009l.046,0h.011l.049,0h0l.046,0h.014l.046,0h.007l.046,0h.014l.046,0h0l.05,0h.007l.053,0h0l.053,0h0l.055,0,.055,0h0l.22-.009h0c28.859-1.452,52.955-15.932,61.926-35.665v0l.015-.037v0l.053-.113v0l.016-.037,0,0,.016-.034c.035-.076.067-.154.1-.23l.016-.037,0,0,.032-.076,0,0,.014-.037,0,0,.016-.034,0,0,.013-.034v0l.016-.037,0,0,.032-.074,0,0,.014-.034,0,0,.014-.034,0,0,.014-.032,0,0,.013-.037,0,0,.033-.076v0l.064-.152.016-.039v0l.017-.037h0l.03-.076,0-.009.011-.03,0-.011.011-.028,0-.011.012-.028,0-.009.014-.028L384,68.61l.011-.025,0-.014.011-.025,0-.014.009-.025.007-.014.009-.025.007-.014.009-.025.005-.011.011-.028,0-.014.011-.025,0-.009.011-.03.005-.014.009-.025.007-.016.009-.023,0-.009.011-.03,0,0,.018-.046.011-.028,0-.009.011-.03.007-.016.009-.023.007-.014.009-.025,0-.011.011-.03,0-.007.011-.03.005-.011.011-.03v0l.013-.034.005-.009.011-.032v0l.013-.034,0,0,.014-.037,0,0,.014-.034v0l.014-.034,0,0,.014-.034,0-.007.011-.032,0,0,.014-.037,0-.007.011-.032,0-.009.011-.03,0-.009.011-.03,0,0,.011-.034,0-.007.012-.032,0-.009.011-.03,0-.009.011-.032,0,0,.014-.034v0l.013-.037,0,0,.012-.034,0,0c.027-.076.058-.154.085-.232v0l.014-.037c.023-.067.045-.131.071-.2v0l.041-.115v0l.041-.115v0l.014-.037v0l.014-.037v0l.014-.034.014-.039v-.007l.011-.034,0,0,.011-.037,0,0,.012-.037,0,0,.014-.041.011-.032,0-.009.012-.032,0-.009.011-.03,0-.009.009-.03,0-.009.01-.032v0l.014-.037,0-.011.007-.028.006-.014.007-.025,0-.011.009-.028,0-.011.011-.03,0-.007.009-.032.014-.041,0-.011.011-.034.023-.073,0,0,.009-.034,0,0,.011-.034,0-.009.009-.032,0-.011.014-.041.009-.025,0-.016.007-.025,0-.014.007-.025,0-.014.009-.025,0-.011.009-.03.005-.014.009-.025.005-.014.007-.025.007-.023.007-.018,0-.021.007-.018,0-.016.007-.025,0-.011.009-.028,0-.016.007-.023.007-.025,0-.016.007-.023,0-.016.007-.021,0-.021.006-.018,0-.021.006-.018.007-.021,0-.021.007-.021,0-.014.011-.034.009-.034v0l.011-.037.005-.009.007-.03,0-.009.011-.032,0-.007.009-.032,0-.014.009-.025,0-.014.009-.028,0-.011.014-.041.007-.028,0-.007.009-.032,0-.011.009-.03,0-.009.009-.03,0-.011.008-.03,0-.009.009-.03,0-.009.009-.032,0-.011.009-.037.009-.032,0-.011.009-.028,0-.011.009-.03v0l.01-.034,0-.011.007-.03,0-.009.007-.03,0-.016.007-.025,0-.016.007-.023,0-.021,0-.018.007-.023,0-.018.007-.025.005-.016,0-.023,0-.016.007-.023,0-.018.007-.023,0-.018,0-.021,0-.018.007-.021.009-.041.007-.018,0-.018,0-.023.007-.023,0-.016.007-.025,0-.016.007-.025,0-.016,0-.025,0-.014.007-.028.005-.014,0-.025,0-.014.009-.041.006-.021.005-.021,0-.023,0-.016,0-.018.007-.023,0-.016.007-.025,0-.014,0-.028,0-.018.007-.021,0-.023,0-.018.007-.03.009-.037,0-.014.03-.115v0l.006-.03.005-.011,0-.025,0-.016,0-.014.011-.046,0-.021,0-.025.009-.032,0-.025,0-.009.006-.032.008-.023,0-.016.009-.041,0-.016.007-.025,0-.014.007-.028,0-.011,0-.028,0-.014,0-.028.007-.023,0-.016,0-.021.007-.023,0-.018.008-.021.009-.041,0-.016.007-.023,0-.018.006-.023,0-.016,0-.028,0-.009.007-.03,0-.016.007-.025,0-.009.007-.032,0-.011,0-.03,0-.011.007-.028,0-.023,0-.018,0-.018,0-.021,0-.018,0-.025,0-.014.007-.025.014-.074,0-.009,0-.023,0-.018,0-.016,0-.023,0-.016.007-.025,0-.011,0-.03,0-.018,0-.021,0-.018,0-.023,0-.018,0-.023,0-.016,0-.025.014-.062,0-.021.005-.021,0-.018,0-.023,0-.018,0-.025,0-.016.014-.083.007-.032,0-.007.007-.034V60.5l.007-.041.007-.032,0-.009,0-.021,0-.023.007-.041,0-.016.009-.046,0-.018,0-.025,0-.016,0-.018,0-.025,0,0,.007-.037V60.12l.007-.032v-.011l.006-.03.008-.041,0-.016,0-.025,0-.018,0-.023,0-.018.006-.023,0-.018,0-.023,0-.018,0-.023,0-.018,0-.023,0-.016,0-.023.005-.018,0-.025,0-.011.005-.03,0-.018,0-.021,0-.025,0-.018,0-.018,0-.023.007-.041,0-.016,0-.025,0-.018,0-.023,0-.032,0-.009,0-.03V59.3l0-.025,0-.016,0-.018,0-.023,0-.018.005-.023,0-.023,0-.018,0-.023,0-.018,0-.03,0-.011.007-.041,0-.025.007-.048,0-.009.005-.025,0-.016,0-.041.005-.021,0-.021,0-.025,0-.016.005-.018,0-.025,0-.007,0-.034v-.011l0-.028,0-.039,0,0,0-.028,0-.016,0-.018,0-.023,0-.023,0-.018,0-.028.007-.032.005-.023,0-.018,0-.034V58.33l.005-.032,0-.009,0-.028,0-.014.005-.032v-.009l.011-.078v-.007l0-.03,0-.011,0-.041,0-.014,0-.03v0l0-.034v-.009l.01-.076,0,0,0-.037,0-.011.005-.03v-.011l.009-.071.007-.074,0-.011c.012-.108.023-.218.037-.331v0l0-.032,0-.011,0-.025,0-.016,0-.018,0-.023v-.011l0-.03,0-.014,0-.028,0-.034v-.009l0-.018.007-.064v-.016l0-.025,0-.016,0-.028V56.86l.005-.034v-.011l0-.032,0-.041v-.007l0-.034V56.69l.007-.076,0-.041,0,0,0-.037v-.007l0-.037v-.007l0-.034,0-.011,0-.03V56.4l0-.032v-.009l0-.034v-.007l0-.034v-.007l.005-.034v0l.009-.124,0-.032V56.07l0-.032,0-.011,0-.021v-.021l0-.011,0-.032v0l0-.039,0-.016v-.028l0-.007L387,55.78v-.009l0-.076v-.007l.009-.119V55.56l0-.037v0l0-.023v-.021l0-.007v-.034l0-.016,0-.025v-.021l0-.023v-.023l0-.018v-.025l0-.018V55.24l0-.018v-.011l0-.074v-.011l0-.032v-.007c0-.041,0-.078,0-.119l0-.016v-.025l0-.073,0-.011,0-.078v-.018c0-.039,0-.078,0-.117s0-.085.007-.126v-.053c0-.053,0-.106.007-.161v-.041l0-.018v-.067l0-.018v-.067l0-.069c0-.092,0-.181,0-.271v-.014l0-.06,0-.115v-.076c0-.138,0-.28,0-.418,0-29.187-31.547-52.846-70.461-52.846Zm0,0" transform="translate(-122.838 -0.207)" fill="#d34000"/>
  <path id="Path_397" data-name="Path 397" d="M442.272,137.635c0-9.729-11.829-17.615-26.423-17.615s-26.424,7.886-26.424,17.615,11.831,17.616,26.424,17.616S442.272,147.364,442.272,137.635Zm0,0" transform="translate(-160.402 -49.558)" fill="#ff7a27"/>
  <path id="Path_398" data-name="Path 398" d="M292.511,77.729c0-9.729-11.831-17.615-26.424-17.615S239.664,68,239.664,77.729,251.5,95.344,266.087,95.344,292.511,87.458,292.511,77.729Zm0,0" transform="translate(-98.718 -24.882)" fill="#ff7a27"/>
  <path id="Path_399" data-name="Path 399" d="M362.683,99.949a17.379,17.379,0,0,0-9.155,2.61A17.846,17.846,0,0,0,347.62,126.9l.067.108.027.046,0,0,.03.046,0,0,.057.094.011.018.011.023c.1.161.2.324.292.485a17.836,17.836,0,0,0,24.273,6.175,17.386,17.386,0,0,0,6.245-23.781c-.047-.076-.09-.154-.138-.23l-.894-1.489A17.381,17.381,0,0,0,362.683,99.949Zm0,0" transform="translate(-142.135 -41.292)" fill="#b22a00"/>
  <path id="Path_400" data-name="Path 400" d="M257.279,68.921a8.808,8.808,0,1,1-8.807-8.808A8.807,8.807,0,0,1,257.279,68.921Zm0,0" transform="translate(-98.718 -24.882)" fill="#ffaf7d"/>
  <path id="Path_401" data-name="Path 401" d="M466.948,128.827a8.808,8.808,0,1,1-8.808-8.808A8.808,8.808,0,0,1,466.948,128.827Zm0,0" transform="translate(-185.077 -49.558)" fill="#ffaf7d"/>
  <path id="Path_402" data-name="Path 402" d="M185.038,137.635a17.615,17.615,0,1,1-17.616-17.615A17.616,17.616,0,0,1,185.038,137.635Zm0,0" transform="translate(-61.71 -49.558)" fill="#ffaf7d"/>
  <path id="Path_403" data-name="Path 403" d="M100.022,219.637a17.521,17.521,0,0,0-5.881,1.022A17.814,17.814,0,0,0,83.3,243.216l.106.3.041.122.055.181a17.656,17.656,0,0,1-16.809,22.925,17.377,17.377,0,0,1-7.753-1.785,17.616,17.616,0,0,0-15.621,31.578A52.455,52.455,0,0,0,61.287,301.7h0c.11.012.221.023.331.032h0c.085.009.165.016.25.023l.083.009.25.021h0l.08.007h0c.08.006.163.014.246.018h0l.08.007h0c.083.007.165.014.246.018h0l.08.007h0c.055,0,.11.007.163.011h0l.08,0h.007l.078,0h0c.055,0,.11.007.165.012l.083,0h0l.08,0h0c.053,0,.108,0,.161.01H63.8l.076,0h.012l.076,0h.009l.078,0,.078,0h.012l.076,0h.009l.078,0h.007c.053,0,.106,0,.159,0l.009,0,.076,0h.012a.656.656,0,0,0,.076,0l.007,0,.159,0h.009l.078,0h.009l.078,0h0l.08,0h0l.078,0h.009l.078,0h.009l.078,0h.007l.074,0h.1l.076,0h.011l.076,0h.09l.076,0h.1l.078,0h.179l.074,0h.43a52.845,52.845,0,0,0,52.847-52.844v-.358l0-.055v-.282l0-.06v-.113l0-.06v-.023l0-.06v-.1l0-.013v-.062l0-.023v-.078l0-.076v-.018l0-.06v-.025l0-.06v-.018l0-.078,0-.076,0-.023v-.06l0-.018,0-.156v-.018l0-.059,0-.021c0-.053,0-.105,0-.156l0-.016,0-.064v-.018l0-.071,0-.006,0-.081v-.011l0-.065v-.021l0-.066v-.011l0-.078v-.014l0-.064,0-.018,0-.067v-.011l0-.08v0l0-.076v-.016l0-.069,0-.009c0-.053,0-.105-.009-.158V245.8l0-.066v-.014l-.012-.158v-.012l0-.069v-.014l-.011-.159V245.3l-.007-.069v-.014c0-.053-.009-.106-.012-.158l0-.009,0-.072v-.011l-.014-.161v0l-.007-.076v-.011l-.007-.076-.007-.085-.007-.078v-.01l-.007-.078v0c0-.055-.011-.108-.016-.163v-.007l-.007-.078c-.007-.057-.012-.112-.016-.167v0l-.009-.08v0l-.016-.163v0l-.009-.08v0c-.009-.083-.016-.163-.025-.248a52.672,52.672,0,0,0-2.146-10.225l-.076-.234c-.016-.046-.03-.094-.044-.14-.055-.163-.108-.324-.163-.489l-.023-.069-.014-.044-.009-.026-.016-.05-.007-.016-.048-.145,0-.011-.021-.065,0-.009c-.108-.317-.223-.637-.338-.951A17.425,17.425,0,0,0,100.022,219.637Zm0,0" transform="translate(-13.825 -90.591)" fill="#d34000"/>
  <path id="Path_404" data-name="Path 404" d="M82.843,236.3a26.423,26.423,0,1,1-26.423-26.423A26.423,26.423,0,0,1,82.843,236.3Zm0,0" transform="translate(-12.354 -86.57)" fill="#ff7a27"/>
  <path id="Path_405" data-name="Path 405" d="M65.227,227.491a17.616,17.616,0,1,1-17.615-17.616A17.616,17.616,0,0,1,65.227,227.491Zm0,0" transform="translate(-12.354 -86.57)" fill="#ffaf7d"/>
  <path id="Path_406" data-name="Path 406" d="M129.362,253.848A17.738,17.738,0,0,0,113,264.73a17.5,17.5,0,0,0,9.377,22.908c.039.018.078.035.12.05l1.236.508c.207.088.413.168.623.244s.407.172.616.253l1.238.48a17.5,17.5,0,0,0,22.656-9.949c.018-.046.037-.092.053-.138a17.727,17.727,0,0,0-10.14-22.826c-.3-.115-.6-.232-.9-.349-.152-.06-.3-.115-.455-.17s-.294-.129-.446-.191c-.292-.117-.583-.237-.873-.358l-.023-.009A17.653,17.653,0,0,0,129.362,253.848Zm0,0" transform="translate(-45.982 -104.683)" fill="#b22a00"/>
  <path id="Path_407" data-name="Path 407" d="M362.971,241.577a61.653,61.653,0,1,1-61.652-61.652A61.652,61.652,0,0,1,362.971,241.577Zm0,0" transform="translate(-98.718 -74.235)" fill="#d34000"/>
  <path id="Path_408" data-name="Path 408" d="M539.909,182.773a17.626,17.626,0,0,0-16.624,11.794c-6.1,17.4-23.726,31.291-46.387,36.807a17.615,17.615,0,1,0,8.28,34.243.29.29,0,0,1,.048-.011c34.566-8.411,61.222-30.611,71.307-59.387a17.627,17.627,0,0,0-16.625-23.446Zm0,0" transform="translate(-190.883 -75.408)" fill="#b22a00"/>
  <path id="Path_409" data-name="Path 409" d="M322.464,257.443c0-9.729-11.831-17.615-26.423-17.615s-26.424,7.887-26.424,17.615,11.831,17.616,26.424,17.616S322.464,267.172,322.464,257.443Zm0,0" transform="translate(-111.055 -98.907)" fill="#ff7a27"/>
  <path id="Path_410" data-name="Path 410" d="M287.233,518.21a8.808,8.808,0,1,1-8.807-8.808A8.807,8.807,0,0,1,287.233,518.21Zm0,0" transform="translate(-111.055 -209.944)" fill="#b22a00"/>
  <path id="Path_411" data-name="Path 411" d="M436.995,608.069a8.808,8.808,0,1,1-8.808-8.807A8.805,8.805,0,0,1,436.995,608.069Zm0,0" transform="translate(-172.738 -246.957)" fill="#d34000"/>
  <path id="Path_412" data-name="Path 412" d="M616.711,608.069a8.806,8.806,0,1,1-8.807-8.807A8.805,8.805,0,0,1,616.711,608.069Zm0,0" transform="translate(-246.77 -246.957)" fill="#d34000"/>
  <path id="Path_413" data-name="Path 413" d="M586.757,578.116a8.806,8.806,0,1,1-8.8-8.808A8.807,8.807,0,0,1,586.757,578.116Zm0,0" transform="translate(-234.434 -234.621)" fill="#ff7a27"/>
  <path id="Path_414" data-name="Path 414" d="M317.186,488.256a8.808,8.808,0,1,1-8.808-8.807A8.808,8.808,0,0,1,317.186,488.256Zm0,0" transform="translate(-123.394 -197.607)" fill="#b22a00"/>
  <path id="Path_415" data-name="Path 415" d="M407.043,518.21a8.807,8.807,0,1,1-8.808-8.808A8.807,8.807,0,0,1,407.043,518.21Zm0,0" transform="translate(-160.406 -209.944)" fill="#b22a00"/>
  <path id="Path_416" data-name="Path 416" d="M257.279,488.256a8.808,8.808,0,1,1-8.807-8.807A8.806,8.806,0,0,1,257.279,488.256Zm0,0" transform="translate(-98.718 -197.607)" fill="#ffaf7d"/>
  <path id="Path_417" data-name="Path 417" d="M407.043,578.116a8.807,8.807,0,1,1-8.808-8.808A8.807,8.807,0,0,1,407.043,578.116Zm0,0" transform="translate(-160.406 -234.621)" fill="#ff7a27"/>
  <path id="Path_418" data-name="Path 418" d="M287.233,458.3a8.808,8.808,0,1,1-8.807-8.808A8.807,8.807,0,0,1,287.233,458.3Zm0,0" transform="translate(-111.055 -185.27)" fill="#ffaf7d"/>
</svg>
