<svg xmlns="http://www.w3.org/2000/svg" width="264.08" height="323.87" viewBox="0 0 264.08 323.87">
  <g id="Group_262" data-name="Group 262" transform="translate(0)">
    <path id="Path_87" data-name="Path 87" d="M51.658,157.95s12.8,18.8,39.614,34.709c0,0-19.423-164.15,107.13-192.659-32.423,119,41.243,152.557,68.1,89.688,44.845,59.872,10.8,112.108,10.8,112.108,18.388,2.649,33.834-17.44,33.834-17.44.138,2.475.215,4.966.215,7.476A132.04,132.04,0,1,1,51.658,157.95Z" transform="translate(-47.262 0)" fill="#ff6536"/>
    <path id="Path_88" data-name="Path 88" d="M164.456,366.714a57.908,57.908,0,1,0,96.58-43.1c-22.389,30.417-54.295-15.723-29.43-49.417C231.606,274.2,164.456,282.611,164.456,366.714Z" transform="translate(-90.324 -100.754)" fill="#fbbf00"/>
  </g>
</svg>
