<svg id="Group_482" data-name="Group 482" xmlns="http://www.w3.org/2000/svg" width="324.252" height="324.317" viewBox="0 0 324.252 324.317">
  <path id="Path_471" data-name="Path 471" d="M397.707,281.058l-26.793,26.983a9.54,9.54,0,0,1-13.493-13.49L384.4,267.757a9.406,9.406,0,0,1,13.3,13.3Zm0,0" transform="translate(-130.026 -97.107)" fill="#895d3c"/>
  <path id="Path_472" data-name="Path 472" d="M399.273,282.708,372.48,309.691a9.753,9.753,0,0,1-13.492,0l40.285-40.285A9.185,9.185,0,0,1,399.273,282.708Zm0,0" transform="translate(-131.592 -98.756)" fill="#714c2f"/>
  <path id="Path_473" data-name="Path 473" d="M303.593,320.332a9.9,9.9,0,0,1-7.789,3.991H9.5a9.407,9.407,0,0,1-9.5-9.5V9.521A9.407,9.407,0,0,1,9.5.02H67.775a9.728,9.728,0,0,1,8.551,5.32l.95,1.9,9.5,59.288,9.5-24.892,32.684,16.341a10.508,10.508,0,0,1,3.8,3.229l20.522,30.786,17.481,26.223a10.211,10.211,0,0,1,1.522,5.32v43.895l-19,18.812-1.9,1.9,1.9-.379,34.2-5.513,17.484,8.742a9.731,9.731,0,0,1,5.32,8.551v15.012L188.439,244.2l30.974-11.78,59.669,15.009a9.009,9.009,0,0,1,6.649,6.082l19,58.273A9.159,9.159,0,0,1,303.593,320.332Zm0,0" transform="translate(0 -0.008)" fill="#91dafa"/>
  <path id="Path_474" data-name="Path 474" d="M260.995,220.651l-19,18.813V145.211l17.481,26.223a10.229,10.229,0,0,1,1.521,5.322Zm0,0" transform="translate(-88.706 -53.23)" fill="#e6f7fe"/>
  <path id="Path_475" data-name="Path 475" d="M392.3,425.79a9.9,9.9,0,0,1-7.789,3.991H241.992V293.22l34.2-5.513,17.484,8.741A9.733,9.733,0,0,1,299,305v15.012l-21.853,29.642,30.974-11.78,59.669,15.01a9.009,9.009,0,0,1,6.649,6.082l19,58.273A9.16,9.16,0,0,1,392.3,425.79Zm0,0" transform="translate(-88.706 -105.464)" fill="#e6f7fe"/>
  <path id="Path_476" data-name="Path 476" d="M287.068,43.338l-19-38.006A9.612,9.612,0,0,0,255.337.963l-38.006,19A8.976,8.976,0,0,0,212.2,27a8.76,8.76,0,0,0,2.66,8.17l19,19a8.909,8.909,0,0,0,6.651,2.85h38a9.891,9.891,0,0,0,8.173-4.56A9.688,9.688,0,0,0,287.068,43.338Zm0,0" transform="translate(-77.726 0)" fill="#d0cee7"/>
  <g id="Group_475" data-name="Group 475" transform="translate(172.287 19.013)">
    <path id="Path_342" data-name="Path 342" d="M405.245,135.015l-38.007-19a9.5,9.5,0,0,1-5.25-8.5v-19a9.5,9.5,0,0,1,5.25-8.5l38.007-19a9.41,9.41,0,0,1,9.241.418A9.505,9.505,0,0,1,419,69.51v57.006a9.5,9.5,0,0,1-13.75,8.5Zm0,0" transform="translate(-304.981 -41.005)" fill="#d0cee7"/>
    <path id="Path_343" data-name="Path 343" d="M350.991,189.513a9.5,9.5,0,1,1-9.5-9.5A9.5,9.5,0,0,1,350.991,189.513Zm0,0" transform="translate(-293.985 -85)" fill="#d0cee7"/>
    <path id="Path_344" data-name="Path 344" d="M290.993,129.514a9.5,9.5,0,1,1-9.5-9.5A9.5,9.5,0,0,1,290.993,129.514Zm0,0" transform="translate(-271.992 -63.007)" fill="#d0cee7"/>
    <path id="Path_345" data-name="Path 345" d="M380.992,39.517a9.5,9.5,0,1,1-9.5-9.5A9.5,9.5,0,0,1,380.992,39.517Zm0,0" transform="translate(-304.981 -30.016)" fill="#d0cee7"/>
  </g>
  <path id="Path_477" data-name="Path 477" d="M123,112.98l19,38a9.5,9.5,0,1,0,17-8.5l-18-36V45.854l-2.422-1.21L122,11.473v97.256A9.518,9.518,0,0,0,123,112.98Zm0,0" transform="translate(-44.717 -4.206)" fill="#895d3c"/>
  <path id="Path_478" data-name="Path 478" d="M232.239,279.13l-34.2,11.4-39.9,13.49L140.458,356.47a9.434,9.434,0,1,1-17.86-6.082l19-57.006a9.115,9.115,0,0,1,5.891-5.891l50.546-16.912,19-6.269v7.219Zm0,0" transform="translate(-44.747 -96.888)" fill="#895d3c"/>
  <path id="Path_479" data-name="Path 479" d="M244.776,406.454a9.5,9.5,0,0,0,13.436,0l49.873-49.872L299,354.31V338.8L244.776,393.02A9.5,9.5,0,0,0,244.776,406.454Zm0,0" transform="translate(-88.706 -124.192)" fill="#714c2f"/>
  <path id="Path_480" data-name="Path 480" d="M244.842,54.168l-2.85-2.85V13.124L266.315.963a9.613,9.613,0,0,1,12.73,4.37l19,38.006a9.682,9.682,0,0,1-.381,9.12,9.882,9.882,0,0,1-8.17,4.56h-38A8.911,8.911,0,0,1,244.842,54.168Zm0,0" transform="translate(-88.706 0)" fill="#d0cee7"/>
  <path id="Path_481" data-name="Path 481" d="M276.195,279.13l-34.2,11.4V270.581l19-6.272v7.223Zm0,0" transform="translate(-88.706 -96.888)" fill="#714c2f"/>
  <path id="Path_482" data-name="Path 482" d="M451.47,182.847a8.826,8.826,0,0,0-9.69-2.281L361.21,207.36a9.57,9.57,0,0,0-3.8,15.772l53.775,53.775a10.106,10.106,0,0,0,8.933,2.472,9.515,9.515,0,0,0,6.839-6.272l26.795-80.57A9.162,9.162,0,0,0,451.47,182.847Zm0,0" transform="translate(-130.012 -65.972)" fill="#d0cee7"/>
  <path id="Path_483" data-name="Path 483" d="M470.944,194.2l-26.792,80.569a9.51,9.51,0,0,1-6.842,6.27,10.108,10.108,0,0,1-8.932-2.469l-26.793-26.792,67.077-67.27A9.165,9.165,0,0,1,470.944,194.2Zm0,0" transform="translate(-147.209 -67.636)" fill="#beb9dd"/>
</svg>
