<svg width="265" height="324" viewBox="0 0 265 324" fill="none" xmlns="http://www.w3.org/2000/svg">
<path d="M4.39601 157.95C4.39601 157.95 17.196 176.75 44.01 192.659C44.01 192.659 24.587 28.509 151.14 0C118.717 119 192.383 152.557 219.24 89.688C264.085 149.56 230.04 201.796 230.04 201.796C248.428 204.445 263.874 184.356 263.874 184.356C264.012 186.831 264.089 189.322 264.089 191.832C264.071 210.603 260.05 229.155 252.295 246.25C244.541 263.345 233.23 278.59 219.118 290.968C205.006 303.346 188.417 312.573 170.458 318.033C152.498 323.494 133.58 325.062 114.967 322.633C96.353 320.205 78.4711 313.835 62.5135 303.95C46.556 294.064 32.8896 280.89 22.4259 265.305C11.9623 249.721 4.94178 232.084 1.83273 213.572C-1.27631 195.06 -0.402462 176.098 4.39601 157.95V157.95Z" fill="#0FE966"/>
<path d="M74.132 265.96C74.1316 275.616 76.5457 285.118 81.1546 293.603C85.7635 302.088 92.4209 309.285 100.521 314.541C108.621 319.797 117.907 322.943 127.533 323.695C137.16 324.446 146.821 322.779 155.639 318.844C164.456 314.909 172.15 308.831 178.02 301.165C183.89 293.498 187.749 284.485 189.247 274.946C190.745 265.407 189.834 255.645 186.597 246.548C183.359 237.451 177.899 229.308 170.712 222.86C148.323 253.277 116.417 207.137 141.282 173.443C141.282 173.446 74.132 181.857 74.132 265.96Z" fill="#F4F905"/>
</svg>
