<svg id="Group_485" data-name="Group 485" xmlns="http://www.w3.org/2000/svg" width="414.156" height="393.878" viewBox="0 0 414.156 393.878">
  <path id="Path_430" data-name="Path 430" d="M389.709,76.015q-2.469,0-4.877.23a7.754,7.754,0,0,1-8.176-5.313c-7.8-23.335-30.463-39.015-56.385-39.015-32.595,0-59.115,25.058-59.115,55.857a7.922,7.922,0,0,1-2.427,5.7,7.807,7.807,0,0,1-5.776,2.19c-22.295-.965-41.4,16.613-41.4,38.655a38.918,38.918,0,0,0,37.215,38.655c.195.015.387.031.582.053H386.314a7.183,7.183,0,0,1,.908-.053c.119,0,.237,0,.356.007q1.057.046,2.132.045c27.129,0,49.2-21.758,49.2-48.507S416.838,76.015,389.709,76.015Z" transform="translate(-40.425 -16.235)" fill="#81a4e3"/>
  <g id="Group_469" data-name="Group 469" transform="translate(0)">
    <path id="Path_240" data-name="Path 240" d="M385.672,56.631c-11.5-26.6-38.536-44.1-69.106-44.1-38.532,0-70.354,28.013-74.365,63.911-28,2.48-50.027,25.83-50.027,54.172a54.576,54.576,0,0,0,51.019,54.249,7.685,7.685,0,0,0,1.458.138H383.524c.21,0,.417-.007.624-.023.617.015,1.237.023,1.857.023,35.772,0,64.876-28.793,64.876-64.187C450.881,85.317,421.582,56.471,385.672,56.631ZM386,169.325q-1.074,0-2.132-.046c-.119-.007-.237-.007-.356-.007a7.2,7.2,0,0,0-.908.053H245.649c-.195-.023-.387-.038-.582-.053a38.917,38.917,0,0,1-37.215-38.655c0-22.042,19.1-39.619,41.4-38.655a7.806,7.806,0,0,0,5.777-2.19,7.916,7.916,0,0,0,2.427-5.7c0-30.8,26.52-55.857,59.115-55.857,25.923,0,48.58,15.679,56.385,39.014a7.754,7.754,0,0,0,8.176,5.313q2.406-.229,4.877-.23c27.129,0,49.2,21.758,49.2,48.507S413.134,169.325,386,169.325Z" transform="translate(-36.724 -12.533)" fill="#314e55"/>
    <path id="Path_241" data-name="Path 241" d="M226.006,303.268V287.589H26.769L41.1,273.257,30.015,262.171,2.3,289.885a7.837,7.837,0,0,0,0,11.085l27.719,27.714L41.1,317.6,26.769,303.267H226.006Z" transform="translate(0 -60.24)" fill="#314e55"/>
    <path id="Path_242" data-name="Path 242" d="M303.54,380.8V365.122H104.3l14.332-14.332L107.549,339.7,79.831,367.418a7.836,7.836,0,0,0,0,11.085l27.718,27.715,11.086-11.086L104.3,380.8H303.54Z" transform="translate(-14.817 -75.057)" fill="#314e55"/>
    <path id="Path_243" data-name="Path 243" d="M205.86,428.324l-11.086-11.085-27.718,27.714a7.836,7.836,0,0,0,0,11.085l27.718,27.715,11.086-11.086-14.332-14.332H390.766V442.655H191.528Z" transform="translate(-31.486 -89.874)" fill="#314e55"/>
  </g>
</svg>
