<svg id="Group_476" data-name="Group 476" xmlns="http://www.w3.org/2000/svg" width="182.591" height="359.444" viewBox="0 0 182.591 359.444">
  <g id="surface1" transform="translate(0 0)">
    <path id="Path_207" data-name="Path 207" d="M36.36,208.87C13.141,132.361,62.2,104.426,62.2,104.426c-3.433,40.826,19.768,72.632,19.768,72.632,8.533-2.574,24.819-14.607,24.819-14.607,0,14.607-8.594,46.4-8.594,46.4s30.084-23.261,39.554-61.9-18.015-77.422-18.015-77.422a103.6,103.6,0,0,1-25.72,74.786,14.822,14.822,0,0,0,2.252-3.469c3.256-6.512,8.484-23.438,5.423-62.632C97.38,23.2,47.528,0,47.528,0c4.3,33.522-8.588,41.246-38.769,104.876S36.36,208.87,36.36,208.87Zm0,0" transform="translate(-0.031 0)" fill="#ed694a"/>
  </g>
  <g id="satellite" transform="translate(0 151.698)">
    <g id="Group_455" data-name="Group 455" transform="translate(0)">
      <g id="Group_454" data-name="Group 454">
        <path id="Path_353" data-name="Path 353" d="M335.627,19.581A66.512,66.512,0,0,1,382.976,0V12.174A54.678,54.678,0,0,0,328.22,66.929H316.045A66.512,66.512,0,0,1,335.627,19.581Z" transform="translate(-316.045 0)" fill="#033158"/>
      </g>
    </g>
    <g id="Group_457" data-name="Group 457" transform="translate(24.338 24.337)">
      <g id="Group_456" data-name="Group 456">
        <path id="Path_354" data-name="Path 354" d="M328.51,72.446A42.3,42.3,0,0,1,358.638,59.98V72.154a30.384,30.384,0,0,0-30.419,30.418H316.045A42.3,42.3,0,0,1,328.51,72.446Z" transform="translate(-316.045 -59.98)" fill="#033158"/>
      </g>
    </g>
    <g id="Group_459" data-name="Group 459" transform="translate(32.428 32.427)">
      <g id="Group_458" data-name="Group 458">
        <path id="Path_355" data-name="Path 355" d="M130.5,140.245l-9.48-9.48a18.261,18.261,0,1,1,8.607-8.608l9.48,9.48,51.723-51.719L195,85.779a79.485,79.485,0,0,1-2.978,95.635l.006.006c-26.283,32.3-73.477,38.893-107.39,14.719l-5.861-4.179Z" transform="translate(-78.778 -79.918)" fill="#033158"/>
      </g>
    </g>
    <g id="Group_461" data-name="Group 461" transform="translate(73.018 149.082)">
      <g id="Group_460" data-name="Group 460">
        <path id="Path_356" data-name="Path 356" d="M56.115,413.911l2.823-21.855a91.8,91.8,0,0,0,47.192-24.634l9.014,46.49h25.431v12.174H31V413.911Z" transform="translate(-31.004 -367.421)" fill="#033158"/>
      </g>
    </g>
  </g>
</svg>
