<svg id="Group_481" data-name="Group 481" xmlns="http://www.w3.org/2000/svg" width="357.264" height="472.149" viewBox="0 0 357.264 472.149">
  <path id="Path_431" data-name="Path 431" d="M227.979,212.322c74.653-9.348,129.285-39.343,129.285-74.9,0-20.842-18.771-39.776-49.344-53.763,0-.313.018-.63.018-.955,0-25.976-20.63-47.034-46.087-47.034A45.293,45.293,0,0,0,236.1,43.684C228.721,18.422,205.789,0,178.632,0s-50.086,18.422-57.463,43.684a45.3,45.3,0,0,0-25.756-8.019c-25.457,0-46.087,21.059-46.087,47.034,0,.324.011.641.018.958C18.775,97.642,0,116.575,0,137.418c0,35.565,54.624,65.56,129.277,74.9" fill="#eceaec"/>
  <path id="Path_432" data-name="Path 432" d="M263.333,187.359a270.1,270.1,0,0,0-55.658,119.385c-7.81,41.253-3.343,80.474.828,102.937H166.249c4.171-22.463,8.465-61.685.656-102.937a270.1,270.1,0,0,0-55.659-119.385" transform="translate(-8.661 -14.584)" fill="#dad8db"/>
  <path id="Path_433" data-name="Path 433" d="M287.7,497.681c0-.093.007-.183.007-.273,0-11.985-10.789-22.867-28.361-30.9,0-.184.014-.367.014-.551,0-14.928-11.859-27.031-26.491-27.031a25.98,25.98,0,0,0-14.8,4.607,34.284,34.284,0,0,0-66.065,0,25.98,25.98,0,0,0-14.8-4.607c-14.632,0-26.491,12.1-26.491,27.031,0,.188.007.367.014.551-17.575,8.032-28.364,18.915-28.364,30.9,0,.089.007.18.007.273Zm0,0" transform="translate(-6.414 -32.567)" fill="#ff8b5a"/>
  <path id="Path_434" data-name="Path 434" d="M280.814,312.82c0,7.695-5.346,18.565-30.857,26.718-13.321,4.25-29.927,7.046-47.913,8.126-5.519.327-11.167.5-16.9.5-5.4,0-10.735-.151-15.951-.439-18.343-1.041-35.295-3.858-48.861-8.184-25.5-8.153-30.85-19.027-30.85-26.718,0-11.577,11.8-19.085,21.711-23.335,11.531-4.953,27.02-8.573,44.895-10.5q2.221,6.586,4.164,13.595a6.345,6.345,0,0,1-1.257.252c-39.178,3.98-55.439,14.974-55.439,19.985,0,2.644,5.609,8.378,21.062,13.314,12.01,3.836,27.049,6.379,43.468,7.42,5.555.357,11.257.534,17.057.534,6.127,0,12.15-.194,17.986-.591,16.062-1.077,30.77-3.6,42.546-7.362,15.454-4.936,21.062-10.67,21.062-13.314,0-4.935-16.016-15.846-54.6-19.9a6.535,6.535,0,0,1-1.228-.244q1.94-7,4.153-13.595c17.669,1.96,32.971,5.59,44.333,10.525C269.161,293.847,280.814,301.318,280.814,312.82Zm0,0" transform="translate(-6.962 -21.714)" fill="#eceaec"/>
  <g id="Group_470" data-name="Group 470" transform="translate(26.398 31.042)">
    <path id="Path_248" data-name="Path 248" d="M246.308,203.3h.007c31.221-4.776,51.854-13.022,51.854-22.388,0-14.783-51.314-26.764-114.616-26.764S68.937,166.129,68.937,180.913c0,9.47,21.073,17.788,52.888,22.543" transform="translate(-31.765 -43.041)" fill="#dad8db"/>
    <path id="Path_249" data-name="Path 249" d="M114.992,83.569A7.033,7.033,0,0,1,107.96,76.7,42.034,42.034,0,0,1,192,74.69a7.041,7.041,0,0,1-6.87,7.2c-.054,0-.112,0-.169,0a7.036,7.036,0,0,1-7.032-6.869,28,28,0,0,0-27.943-27.294c-.227,0-.45,0-.677.011a27.951,27.951,0,0,0-27.283,28.62,7.037,7.037,0,0,1-6.869,7.2C115.1,83.569,115.049,83.569,114.992,83.569Zm0,0" transform="translate(-34.801 -33.664)" fill="#dad8db"/>
    <path id="Path_250" data-name="Path 250" d="M97.737,126.406a7.02,7.02,0,0,1-5.2-2.291,29.956,29.956,0,1,1,44.243-40.4A7.036,7.036,0,0,1,126.39,93.2a15.884,15.884,0,1,0-23.458,21.423,7.035,7.035,0,0,1-5.194,11.779Zm0,0" transform="translate(-32.993 -36.801)" fill="#dad8db"/>
    <path id="Path_251" data-name="Path 251" d="M261.237,111.723a7.042,7.042,0,0,1-6.358-10.043,16.622,16.622,0,0,0-30.057-14.2A7.037,7.037,0,0,1,212.1,81.467a30.7,30.7,0,0,1,55.511,26.224A7.046,7.046,0,0,1,261.237,111.723Zm0,0" transform="translate(-42.854 -36.014)" fill="#dad8db"/>
    <path id="Path_252" data-name="Path 252" d="M327.318,154.406a7.036,7.036,0,0,1-1.441-13.923,5.312,5.312,0,0,0-2.19-10.4,7.036,7.036,0,0,1-2.9-13.771,19.383,19.383,0,1,1,7.983,37.935A6.958,6.958,0,0,1,327.318,154.406Zm0,0" transform="translate(-50.931 -40.064)" fill="#dad8db"/>
    <path id="Path_253" data-name="Path 253" d="M40.624,154.844a6.992,6.992,0,0,1-4.2-1.391A19.384,19.384,0,0,1,59.583,122.36a7.038,7.038,0,1,1-8.408,11.289,5.309,5.309,0,0,0-6.344,8.516,7.034,7.034,0,0,1-4.207,12.68Zm0,0" transform="translate(-28.628 -40.268)" fill="#dad8db"/>
  </g>
  <path id="Path_435" data-name="Path 435" d="M191.16,282.556a7.034,7.034,0,0,1-6.913-5.781,298.248,298.248,0,0,0-8.188-33.768,299.018,299.018,0,0,0-16.016-41.181,7.036,7.036,0,1,1,12.7-6.059,312.429,312.429,0,0,1,16.772,43.13,311.848,311.848,0,0,1,8.577,35.367,7.035,7.035,0,0,1-5.666,8.181A7.268,7.268,0,0,1,191.16,282.556Zm0,0" transform="translate(-12.402 -14.926)" fill="#cbcacc"/>
  <path id="Path_436" data-name="Path 436" d="M208.359,240.522a7.043,7.043,0,0,1-6.762-9,170.923,170.923,0,0,1,18.271-41.379,7.037,7.037,0,1,1,12.01,7.338,156.646,156.646,0,0,0-16.765,37.967A7.039,7.039,0,0,1,208.359,240.522Zm0,0" transform="translate(-15.664 -14.536)" fill="#cbcacc"/>
  <path id="Path_437" data-name="Path 437" d="M310.712,510.811H58.277a7.036,7.036,0,0,1,0-14.073H310.712a7.036,7.036,0,0,1,0,14.073Zm0,0" transform="translate(-3.987 -38.662)" fill="#5d5360"/>
</svg>
