<svg id="Group_486" data-name="Group 486" xmlns="http://www.w3.org/2000/svg" width="423.52" height="364.792" viewBox="0 0 423.52 364.792">
  <g id="Group_471" data-name="Group 471" transform="translate(0 186.077)">
    <path id="Path_257" data-name="Path 257" d="M6.3,349.076a6.3,6.3,0,0,1-4.453-10.75L112.873,227.3a6.3,6.3,0,0,1,8.905,8.9L10.747,347.23A6.279,6.279,0,0,1,6.3,349.076Zm0,0" transform="translate(-0.001 -225.454)" fill="#a0ecff"/>
    <path id="Path_258" data-name="Path 258" d="M22.743,319.35A6.294,6.294,0,0,1,18.294,308.6l14.191-14.2a6.3,6.3,0,0,1,8.905,8.905L27.2,317.508A6.279,6.279,0,0,1,22.743,319.35Zm0,0" transform="translate(-2.843 -237.052)" fill="#a0ecff"/>
    <path id="Path_259" data-name="Path 259" d="M56.376,396.607a6.294,6.294,0,0,1-4.453-10.746l14.191-14.192a6.3,6.3,0,0,1,8.905,8.9L60.829,394.766A6.281,6.281,0,0,1,56.376,396.607Zm0,0" transform="translate(-8.655 -250.404)" fill="#a0ecff"/>
    <path id="Path_260" data-name="Path 260" d="M350.586,349.076a6.3,6.3,0,0,1-4.452-10.75L457.162,227.3a6.3,6.3,0,0,1,8.906,8.9L355.039,347.23A6.291,6.291,0,0,1,350.586,349.076Zm0,0" transform="translate(-59.497 -225.454)" fill="#a0ecff"/>
  </g>
  <path id="Path_438" data-name="Path 438" d="M225.015,316.294,90.69,406.179a7.495,7.495,0,0,1-9.467-11.529l66.159-66.159H103.4a7.5,7.5,0,0,1-5.3-12.8l70.773-70.766h63.206l-57.642,57.638h46.41A7.5,7.5,0,0,1,225.015,316.294Zm0,0" transform="translate(-13.641 -42.742)" fill="#f6cb43"/>
  <path id="Path_439" data-name="Path 439" d="M225.373,316.293,91.048,406.178a7.266,7.266,0,0,1-10.036-1.567l111.115-88.8H148.053a7.5,7.5,0,0,1-5.3-12.8l58.078-58.083h31.608l-57.645,57.641H221.2A7.5,7.5,0,0,1,225.373,316.293Zm0,0" transform="translate(-14.001 -42.741)" fill="#fab03c"/>
  <path id="Path_440" data-name="Path 440" d="M306.45,345.633A6.295,6.295,0,0,1,302,334.886l49.147-49.146a6.3,6.3,0,1,1,8.905,8.905L310.9,343.791A6.281,6.281,0,0,1,306.45,345.633Zm0,0" transform="translate(-51.876 -49.475)" fill="#a0ecff"/>
  <path id="Path_441" data-name="Path 441" d="M261.845,397.222a6.3,6.3,0,0,1-4.453-10.75l15.739-15.736a6.3,6.3,0,1,1,8.9,8.9L266.3,395.377A6.28,6.28,0,0,1,261.845,397.222Zm0,0" transform="translate(-44.166 -64.162)" fill="#a0ecff"/>
  <path id="Path_442" data-name="Path 442" d="M282.912,295.02a6.3,6.3,0,0,1-4.453-10.75l48.53-48.526a6.3,6.3,0,1,1,8.906,8.9l-48.53,48.529A6.292,6.292,0,0,1,282.912,295.02Zm0,0" transform="translate(-47.805 -40.834)" fill="#a0ecff"/>
  <path id="Path_443" data-name="Path 443" d="M385.8,102.354A108.52,108.52,0,0,0,175.87,70.933a73.294,73.294,0,0,0,.9,146.583H383.792a57.6,57.6,0,0,0,2.01-115.163Zm0,0" transform="translate(-17.878 -0.5)" fill="#6d6d6d"/>
  <path id="Path_444" data-name="Path 444" d="M461.421,159.908a57.618,57.618,0,0,1-57.613,57.612h-4.462a57.611,57.611,0,0,0-49.056-84.237A108.6,108.6,0,0,0,219.313,33.8a108.5,108.5,0,0,1,186.512,68.553A57.587,57.587,0,0,1,461.421,159.908Zm0,0" transform="translate(-37.901 -0.5)" fill="#565656"/>
  <path id="Path_445" data-name="Path 445" d="M407.825,110.676a6.3,6.3,0,0,1-6.117-4.827,74.973,74.973,0,0,0-4.074-12.214,6.3,6.3,0,1,1,11.555-5,87.342,87.342,0,0,1,4.763,14.272,6.308,6.308,0,0,1-6.126,7.771Zm0,0" transform="translate(-68.63 -15.076)" fill="#6d6d6d"/>
  <path id="Path_446" data-name="Path 446" d="M371.623,62.934A6.269,6.269,0,0,1,367.08,61a74.963,74.963,0,0,0-54.536-23.294,6.3,6.3,0,0,1,0-12.592,87.454,87.454,0,0,1,63.619,27.165,6.3,6.3,0,0,1-4.541,10.656Zm0,0" transform="translate(-52.925 -4.754)" fill="#6d6d6d"/>
  <path id="Path_447" data-name="Path 447" d="M76.075,148.111a77.584,77.584,0,0,1,150.087-22.463,52.4,52.4,0,0,1-.643,104.794H77.513a41.178,41.178,0,0,1-1.438-82.331Zm0,0" transform="translate(-6.275 -13.425)" fill="#a09d9c"/>
  <path id="Path_448" data-name="Path 448" d="M292.075,178.042a52.407,52.407,0,0,1-51.687,52.391,52.389,52.389,0,0,0-37.957-87.83,77.6,77.6,0,0,0-72.66-50.355,78.5,78.5,0,0,0-11.568.859,77.579,77.579,0,0,1,122.1,32.544A52.394,52.394,0,0,1,292.075,178.042Zm0,0" transform="translate(-20.425 -13.425)" fill="#82807f"/>
  <path id="Path_449" data-name="Path 449" d="M327.119,400.509H327a6.3,6.3,0,0,1,.029-12.595h.119a6.3,6.3,0,0,1-.029,12.595Zm0,0" transform="translate(-55.431 -67.451)" fill="#a0ecff"/>
  <path id="Path_450" data-name="Path 450" d="M417.732,348.916h-.116a6.3,6.3,0,0,1,.029-12.592h.116a6.3,6.3,0,0,1-.029,12.592Zm0,0" transform="translate(-71.085 -58.537)" fill="#a0ecff"/>
  <path id="Path_451" data-name="Path 451" d="M37.908,418.306h-.087a6.3,6.3,0,1,1,0-12.591h.087a6.3,6.3,0,0,1,0,12.591Zm0,0" transform="translate(-5.446 -70.527)" fill="#a0ecff"/>
</svg>
