<svg id="Group_478" data-name="Group 478" xmlns="http://www.w3.org/2000/svg" width="350.524" height="350.521" viewBox="0 0 350.524 350.521">
  <path id="Path_452" data-name="Path 452" d="M352.274,113.214c-29.213,0-29.213,16.893-58.426,16.893s-29.216-16.893-58.429-16.893S206.208,130.107,177,130.107s-29.21-16.893-58.418-16.893-29.208,16.893-58.418,16.893S30.958,113.214,1.75,113.214V67.058c29.208,0,29.208,16.893,58.415,16.893s29.21-16.893,58.418-16.893S147.79,83.951,177,83.951s29.208-16.893,58.418-16.893,29.213,16.893,58.429,16.893,29.213-16.893,58.426-16.893Z" transform="translate(-1.75 116.821)" fill="#beebfa"/>
  <path id="Path_453" data-name="Path 453" d="M352.274,129.608c-29.213,0-29.213,16.893-58.426,16.893s-29.216-16.893-58.429-16.893S206.208,146.5,177,146.5s-29.21-16.893-58.418-16.893S89.375,146.5,60.165,146.5,30.958,129.608,1.75,129.608V83.452c29.208,0,29.208,16.892,58.415,16.892s29.21-16.892,58.418-16.892S147.79,100.344,177,100.344s29.208-16.892,58.418-16.892,29.213,16.892,58.429,16.892,29.213-16.892,58.426-16.892Z" transform="translate(-1.75 146.583)" fill="#9ee2f8"/>
  <path id="Path_454" data-name="Path 454" d="M1.75,174.174V99.847c29.208,0,29.208,16.893,58.415,16.893s29.21-16.893,58.418-16.893S147.79,116.74,177,116.74s29.208-16.893,58.418-16.893,29.213,16.893,58.429,16.893,29.213-16.893,58.426-16.893v74.327Z" transform="translate(-1.75 176.346)" fill="#0d91bd"/>
  <path id="Path_455" data-name="Path 455" d="M177.976,71,108.719,1.747,39.464,71,59.375,90.912,94.641,55.643V144.3H122.8V55.643l35.269,35.269Z" transform="translate(66.715 -1.747)" fill="#09607d"/>
</svg>
