<svg id="tropical_storm_2" data-name="tropical storm 2" xmlns="http://www.w3.org/2000/svg" width="349.044" height="465.388" viewBox="0 0 349.044 465.388">
  <g id="Group_421" data-name="Group 421" transform="translate(0)">
    <path id="Path_278" data-name="Path 278" d="M264.729,60.122c18.761-23.066,37.842-32.286,38.046-32.374A14.543,14.543,0,0,0,296.7,0C168.393,0,64,104.392,64,232.694c0,87.318,64.457,159.861,148.314,172.572-18.732,23.066-37.842,32.286-38.046,32.374a14.543,14.543,0,0,0,6.079,27.749c128.3,0,232.7-104.392,232.7-232.694C413.044,145.376,348.587,72.8,264.729,60.122ZM238.522,319.954a87.26,87.26,0,1,1,87.261-87.26A87.255,87.255,0,0,1,238.522,319.954Z" transform="translate(-64)" fill="#75e6ff"/>
  </g>
</svg>
