<svg id="Group_489" data-name="Group 489" xmlns="http://www.w3.org/2000/svg" width="486.086" height="398.761" viewBox="0 0 486.086 398.761">
  <g id="on" transform="translate(148.567 86)">
    <path id="Path_283" data-name="Path 283" d="M119.428,4.846A54.829,54.829,0,0,0,56.52,17.737a7.075,7.075,0,0,0,0,10l28.3,28.3a7.075,7.075,0,0,0,10,0L96.9,53.9v11.22a7.073,7.073,0,0,0,3.438,6.07l30.8,18.479a6.942,6.942,0,0,0,1.415.665,92.959,92.959,0,0,1,37.156,22.2,7.075,7.075,0,0,0,5.009,2.108,6.986,6.986,0,0,0,2.7-.538,7.074,7.074,0,0,0,4.372-6.537C181.8,63.735,154.915,19.576,119.428,4.846Z" transform="translate(-26.149 0)" fill="#388e3c"/>
    <path id="Path_284" data-name="Path 284" d="M350.4,17.754A54.786,54.786,0,0,0,287.509,4.921c-35.5,14.673-62.385,58.833-62.385,102.667a7.075,7.075,0,0,0,4.372,6.537,7,7,0,0,0,2.7.538,7.072,7.072,0,0,0,5.008-2.066,93.033,93.033,0,0,1,37.114-22.243,6.669,6.669,0,0,0,1.415-.665l30.8-18.479a7.073,7.073,0,0,0,3.438-6.07V53.919l2.066,2.066a7.075,7.075,0,0,0,10,0l28.3-28.3a7.075,7.075,0,0,0,0-10Z" transform="translate(-83.623 -0.018)" fill="#4caf50"/>
    <path id="Path_285" data-name="Path 285" d="M239.052,168.742a7.034,7.034,0,0,0-14.05.552H210.668a7.075,7.075,0,0,0-14.05-.524L182.469,359.785A7.075,7.075,0,0,0,189,367.363q.27.02.543.019h56.6a7.074,7.074,0,0,0,7.094-7.055q0-.272-.019-.543Z" transform="translate(-69.253 -54.621)" fill="#6d4c41"/>
    <g id="Group_423" data-name="Group 423" transform="translate(120.277 128.793)">
      <path id="Path_286" data-name="Path 286" d="M242.647,400.335H200.2a7.075,7.075,0,1,1,0-14.15h42.448a7.075,7.075,0,1,1,0,14.15Z" transform="translate(-193.124 -258.843)" fill="#795548"/>
      <path id="Path_287" data-name="Path 287" d="M239.164,336.336h-28.3a7.075,7.075,0,1,1,0-14.15h28.3a7.075,7.075,0,0,1,0,14.15Z" transform="translate(-196.716 -237.291)" fill="#795548"/>
      <path id="Path_288" data-name="Path 288" d="M239.164,272.335h-28.3a7.075,7.075,0,1,1,0-14.149h28.3a7.075,7.075,0,0,1,0,14.149Z" transform="translate(-196.716 -215.738)" fill="#795548"/>
      <path id="Path_289" data-name="Path 289" d="M239.164,208.336h-28.3a7.075,7.075,0,0,1,0-14.15h28.3a7.075,7.075,0,0,1,0,14.15Z" transform="translate(-196.716 -194.186)" fill="#795548"/>
    </g>
    <path id="Path_290" data-name="Path 290" d="M341.143,114.252a108.951,108.951,0,0,0-113.959,24.605,7.074,7.074,0,0,0,3.523,11.928l82.307,17.545a7.075,7.075,0,0,0,7.684-3.509l3.155-5.745,4.584,9.169a7.075,7.075,0,0,0,5.052,3.792l38.911,7.075a6.72,6.72,0,0,0,1.273.113,7.075,7.075,0,0,0,7.075-7.075A60.644,60.644,0,0,0,341.143,114.252Z" transform="translate(-83.617 -36.226)" fill="#388e3c"/>
    <path id="Path_291" data-name="Path 291" d="M165.364,138.849A108.853,108.853,0,0,0,51.405,114.243a60.643,60.643,0,0,0-39.618,57.828,7.075,7.075,0,0,0,7.075,7.075,6.68,6.68,0,0,0,1.273-.113l38.911-7.075a7.075,7.075,0,0,0,5.051-3.792L68.682,159l3.155,5.744a7.075,7.075,0,0,0,7.683,3.509l82.25-17.545a7.075,7.075,0,0,0,3.523-11.928Z" transform="translate(-11.78 -36.218)" fill="#4caf50"/>
  </g>
  <g id="on-2" data-name="on" transform="translate(0 86)">
    <path id="Path_283-2" data-name="Path 283" d="M119.428,4.846A54.829,54.829,0,0,0,56.52,17.737a7.075,7.075,0,0,0,0,10l28.3,28.3a7.075,7.075,0,0,0,10,0L96.9,53.9v11.22a7.073,7.073,0,0,0,3.438,6.07l30.8,18.479a6.942,6.942,0,0,0,1.415.665,92.959,92.959,0,0,1,37.156,22.2,7.075,7.075,0,0,0,5.009,2.108,6.986,6.986,0,0,0,2.7-.538,7.074,7.074,0,0,0,4.372-6.537C181.8,63.735,154.915,19.576,119.428,4.846Z" transform="translate(-26.149 0)" fill="#388e3c"/>
    <path id="Path_284-2" data-name="Path 284" d="M350.4,17.754A54.786,54.786,0,0,0,287.509,4.921c-35.5,14.673-62.385,58.833-62.385,102.667a7.075,7.075,0,0,0,4.372,6.537,7,7,0,0,0,2.7.538,7.072,7.072,0,0,0,5.008-2.066,93.033,93.033,0,0,1,37.114-22.243,6.669,6.669,0,0,0,1.415-.665l30.8-18.479a7.073,7.073,0,0,0,3.438-6.07V53.919l2.066,2.066a7.075,7.075,0,0,0,10,0l28.3-28.3a7.075,7.075,0,0,0,0-10Z" transform="translate(-83.623 -0.018)" fill="#4caf50"/>
    <path id="Path_285-2" data-name="Path 285" d="M239.052,168.742a7.034,7.034,0,0,0-14.05.552H210.668a7.075,7.075,0,0,0-14.05-.524L182.469,359.785A7.075,7.075,0,0,0,189,367.363q.27.02.543.019h56.6a7.074,7.074,0,0,0,7.094-7.055q0-.272-.019-.543Z" transform="translate(-69.253 -54.621)" fill="#6d4c41"/>
    <g id="Group_423-2" data-name="Group 423" transform="translate(120.277 128.793)">
      <path id="Path_286-2" data-name="Path 286" d="M242.647,400.335H200.2a7.075,7.075,0,1,1,0-14.15h42.448a7.075,7.075,0,1,1,0,14.15Z" transform="translate(-193.124 -258.843)" fill="#795548"/>
      <path id="Path_287-2" data-name="Path 287" d="M239.164,336.336h-28.3a7.075,7.075,0,1,1,0-14.15h28.3a7.075,7.075,0,0,1,0,14.15Z" transform="translate(-196.716 -237.291)" fill="#795548"/>
      <path id="Path_288-2" data-name="Path 288" d="M239.164,272.335h-28.3a7.075,7.075,0,1,1,0-14.149h28.3a7.075,7.075,0,0,1,0,14.149Z" transform="translate(-196.716 -215.738)" fill="#795548"/>
      <path id="Path_289-2" data-name="Path 289" d="M239.164,208.336h-28.3a7.075,7.075,0,0,1,0-14.15h28.3a7.075,7.075,0,0,1,0,14.15Z" transform="translate(-196.716 -194.186)" fill="#795548"/>
    </g>
    <path id="Path_290-2" data-name="Path 290" d="M341.143,114.252a108.951,108.951,0,0,0-113.959,24.605,7.074,7.074,0,0,0,3.523,11.928l82.307,17.545a7.075,7.075,0,0,0,7.684-3.509l3.155-5.745,4.584,9.169a7.075,7.075,0,0,0,5.052,3.792l38.911,7.075a6.72,6.72,0,0,0,1.273.113,7.075,7.075,0,0,0,7.075-7.075A60.644,60.644,0,0,0,341.143,114.252Z" transform="translate(-83.617 -36.226)" fill="#388e3c"/>
    <path id="Path_291-2" data-name="Path 291" d="M165.364,138.849A108.853,108.853,0,0,0,51.405,114.243a60.643,60.643,0,0,0-39.618,57.828,7.075,7.075,0,0,0,7.075,7.075,6.68,6.68,0,0,0,1.273-.113l38.911-7.075a7.075,7.075,0,0,0,5.051-3.792L68.682,159l3.155,5.744a7.075,7.075,0,0,0,7.683,3.509l82.25-17.545a7.075,7.075,0,0,0,3.523-11.928Z" transform="translate(-11.78 -36.218)" fill="#4caf50"/>
  </g>
  <g id="storm" transform="translate(184.989 0)">
    <g id="Group_419" data-name="Group 419" transform="translate(0 132.291)">
      <path id="Path_257" data-name="Path 257" d="M4.478,313.341A4.477,4.477,0,0,1,1.312,305.7l78.934-78.934a4.476,4.476,0,0,1,6.331,6.329L7.641,312.029a4.465,4.465,0,0,1-3.163,1.312Zm0,0" transform="translate(-0.001 -225.454)" fill="#a0ecff"/>
      <path id="Path_258" data-name="Path 258" d="M20.923,311.608a4.474,4.474,0,0,1-3.163-7.64l10.089-10.092a4.477,4.477,0,1,1,6.331,6.331L24.089,310.3A4.465,4.465,0,0,1,20.923,311.608Zm0,0" transform="translate(-6.776 -253.099)" fill="#a0ecff"/>
      <path id="Path_259" data-name="Path 259" d="M54.556,388.866a4.475,4.475,0,0,1-3.166-7.64L61.48,371.137a4.476,4.476,0,0,1,6.331,6.328L57.721,387.557A4.467,4.467,0,0,1,54.556,388.866Zm0,0" transform="translate(-20.629 -284.923)" fill="#a0ecff"/>
      <path id="Path_260" data-name="Path 260" d="M348.767,313.341A4.477,4.477,0,0,1,345.6,305.7l78.933-78.934a4.476,4.476,0,0,1,6.332,6.329l-78.935,78.936A4.473,4.473,0,0,1,348.767,313.341Zm0,0" transform="translate(-141.82 -225.454)" fill="#a0ecff"/>
      <path id="Path_307" data-name="Path 307" d="M4.478,313.341A4.477,4.477,0,0,1,1.312,305.7l78.934-78.934a4.476,4.476,0,0,1,6.331,6.329L7.641,312.029a4.465,4.465,0,0,1-3.163,1.312Zm0,0" transform="translate(71.666 -218.919)" fill="#a0ecff"/>
    </g>
    <path id="Path_263" data-name="Path 263" d="M304.63,327.787a4.475,4.475,0,0,1-3.165-7.641l34.94-34.94a4.477,4.477,0,0,1,6.331,6.331L307.8,326.478A4.466,4.466,0,0,1,304.63,327.787Zm0,0" transform="translate(-123.639 -117.237)" fill="#a0ecff"/>
    <path id="Path_264" data-name="Path 264" d="M260.024,389.032a4.477,4.477,0,0,1-3.166-7.642L268.048,370.2a4.476,4.476,0,0,1,6.329,6.33L263.19,387.721A4.464,4.464,0,0,1,260.024,389.032Zm0,0" transform="translate(-105.265 -152.248)" fill="#a0ecff"/>
    <path id="Path_265" data-name="Path 265" d="M281.091,277.352a4.477,4.477,0,0,1-3.166-7.643l34.5-34.5a4.476,4.476,0,0,1,6.332,6.329l-34.5,34.5A4.475,4.475,0,0,1,281.091,277.352Zm0,0" transform="translate(-113.943 -96.642)" fill="#a0ecff"/>
    <path id="Path_266" data-name="Path 266" d="M304.189,72.912A77.151,77.151,0,0,0,154.94,50.574a52.108,52.108,0,0,0,.639,104.212H302.76a40.949,40.949,0,0,0,1.429-81.874Zm0,0" transform="translate(-42.62 -0.5)" fill="#6d6d6d"/>
    <path id="Path_267" data-name="Path 267" d="M391.437,113.831a40.963,40.963,0,0,1-40.959,40.959h-3.172A40.959,40.959,0,0,0,312.429,94.9a77.207,77.207,0,0,0-93.117-70.723,77.138,77.138,0,0,1,132.6,48.737A40.941,40.941,0,0,1,391.437,113.831Zm0,0" transform="translate(-90.34 -0.502)" fill="#565656"/>
    <path id="Path_268" data-name="Path 268" d="M404.728,103.206a4.48,4.48,0,0,1-4.349-3.432,53.34,53.34,0,0,0-2.9-8.683,4.476,4.476,0,0,1,8.215-3.556,62.112,62.112,0,0,1,3.386,10.147,4.485,4.485,0,0,1-4.356,5.525Zm0,0" transform="translate(-163.578 -35.24)" fill="#6d6d6d"/>
    <path id="Path_269" data-name="Path 269" d="M352.726,52a4.459,4.459,0,0,1-3.23-1.376,53.294,53.294,0,0,0-38.771-16.56,4.476,4.476,0,0,1,0-8.952,62.174,62.174,0,0,1,45.23,19.312A4.476,4.476,0,0,1,352.726,52Zm0,0" transform="translate(-126.151 -10.639)" fill="#6d6d6d"/>
    <path id="Path_272" data-name="Path 272" d="M325.274,396.869h-.086a4.477,4.477,0,0,1,.021-8.955h.085a4.477,4.477,0,0,1-.02,8.955Zm0,0" transform="translate(-132.117 -160.085)" fill="#a0ecff"/>
    <path id="Path_273" data-name="Path 273" d="M415.887,345.276H415.8a4.476,4.476,0,0,1,.021-8.952h.082a4.476,4.476,0,0,1-.02,8.952Zm0,0" transform="translate(-169.442 -138.833)" fill="#a0ecff"/>
    <path id="Path_274" data-name="Path 274" d="M36.063,414.667H36a4.476,4.476,0,1,1,0-8.952h.062a4.476,4.476,0,0,1,0,8.952Zm0,0" transform="translate(-12.986 -167.417)" fill="#a0ecff"/>
    <path id="Path_308" data-name="Path 308" d="M281.091,277.352a4.477,4.477,0,0,1-3.166-7.643l34.5-34.5a4.476,4.476,0,0,1,6.332,6.329l-34.5,34.5A4.475,4.475,0,0,1,281.091,277.352Zm0,0" transform="translate(-199.944 -96.642)" fill="#a0ecff"/>
    <path id="Path_309" data-name="Path 309" d="M64.586,127.062a55.158,55.158,0,0,1,106.7-15.97,37.252,37.252,0,0,1-.457,74.5H65.608a29.275,29.275,0,0,1-1.022-58.532Zm0,0" transform="translate(-14.968 -31.31)" fill="#a09d9c"/>
    <path id="Path_310" data-name="Path 310" d="M241.815,148.342a37.258,37.258,0,0,1-36.746,37.247,37.246,37.246,0,0,0-26.985-62.442,55.172,55.172,0,0,0-51.657-35.8,55.82,55.82,0,0,0-8.224.611A55.154,55.154,0,0,1,205.012,111.1,37.249,37.249,0,0,1,241.815,148.342Zm0,0" transform="translate(-48.692 -31.31)" fill="#82807f"/>
  </g>
</svg>
