<svg id="Group_488" data-name="Group 488" xmlns="http://www.w3.org/2000/svg" width="502.846" height="272.393" viewBox="0 0 502.846 272.393">
  <g id="Group_473" data-name="Group 473" transform="translate(0 0)">
    <g id="on" transform="translate(244.059)">
      <path id="Path_283" data-name="Path 283" d="M111.041,4.221A47.752,47.752,0,0,0,56.253,15.447a6.162,6.162,0,0,0,0,8.713L80.9,48.806a6.162,6.162,0,0,0,8.713,0l1.811-1.861v9.772A6.16,6.16,0,0,0,94.418,62L121.246,78.1a6.04,6.04,0,0,0,1.232.579,80.962,80.962,0,0,1,32.36,19.335,6.162,6.162,0,0,0,4.362,1.836,6.085,6.085,0,0,0,2.354-.468,6.161,6.161,0,0,0,3.808-5.693C165.362,55.509,141.948,17.049,111.041,4.221Z" transform="translate(-29.801 0)" fill="#388e3c"/>
      <path id="Path_284" data-name="Path 284" d="M334.233,15.469A47.715,47.715,0,0,0,279.457,4.292c-30.918,12.779-54.333,51.239-54.333,89.416a6.162,6.162,0,0,0,3.808,5.693,6.094,6.094,0,0,0,2.354.468,6.16,6.16,0,0,0,4.362-1.8A81.024,81.024,0,0,1,267.971,78.7a5.8,5.8,0,0,0,1.232-.579l26.828-16.094a6.16,6.16,0,0,0,2.994-5.287V46.967l1.8,1.8a6.162,6.162,0,0,0,8.713,0L334.184,24.12a6.162,6.162,0,0,0,0-8.713Z" transform="translate(-101.887 -0.023)" fill="#4caf50"/>
      <path id="Path_285" data-name="Path 285" d="M231.747,167.9a6.126,6.126,0,0,0-12.237.48H207.026a6.161,6.161,0,0,0-12.237-.456l-12.323,166.36a6.161,6.161,0,0,0,5.689,6.6c.157.011.315.018.473.017H237.92a6.161,6.161,0,0,0,6.178-6.144q0-.237-.017-.473Z" transform="translate(-83.863 -68.506)" fill="#6d4c41"/>
      <g id="Group_423" data-name="Group 423" transform="translate(104.752 112.169)">
        <path id="Path_286" data-name="Path 286" d="M236.255,398.509H199.286a6.161,6.161,0,1,1,0-12.323h36.969a6.161,6.161,0,1,1,0,12.323Z" transform="translate(-193.124 -275.28)" fill="#795548"/>
        <path id="Path_287" data-name="Path 287" d="M234.6,334.51H209.951a6.162,6.162,0,0,1,0-12.324H234.6a6.162,6.162,0,1,1,0,12.324Z" transform="translate(-197.629 -248.248)" fill="#795548"/>
        <path id="Path_288" data-name="Path 288" d="M234.6,270.509H209.951a6.162,6.162,0,0,1,0-12.323H234.6a6.162,6.162,0,1,1,0,12.323Z" transform="translate(-197.629 -221.217)" fill="#795548"/>
        <path id="Path_289" data-name="Path 289" d="M234.6,206.509H209.951a6.162,6.162,0,0,1,0-12.323H234.6a6.162,6.162,0,1,1,0,12.323Z" transform="translate(-197.629 -194.186)" fill="#795548"/>
      </g>
      <path id="Path_290" data-name="Path 290" d="M326.166,113.39a94.888,94.888,0,0,0-99.25,21.43,6.162,6.162,0,0,0,3.068,10.389l71.683,15.28a6.162,6.162,0,0,0,6.692-3.056l2.747-5,3.993,7.985a6.161,6.161,0,0,0,4.4,3.3l33.889,6.162a5.86,5.86,0,0,0,1.109.1,6.162,6.162,0,0,0,6.161-6.162A52.817,52.817,0,0,0,326.166,113.39Z" transform="translate(-101.879 -45.434)" fill="#388e3c"/>
      <path id="Path_291" data-name="Path 291" d="M145.541,134.809a94.8,94.8,0,0,0-99.25-21.43,52.816,52.816,0,0,0-34.5,50.364,6.162,6.162,0,0,0,6.162,6.162,5.807,5.807,0,0,0,1.109-.1l33.889-6.162a6.162,6.162,0,0,0,4.4-3.3l3.993-7.985,2.748,5a6.161,6.161,0,0,0,6.691,3.056l71.634-15.28a6.161,6.161,0,0,0,3.068-10.388Z" transform="translate(-11.78 -45.424)" fill="#4caf50"/>
    </g>
    <g id="on-2" data-name="on">
      <path id="Path_283-2" data-name="Path 283" d="M111.041,4.221A47.752,47.752,0,0,0,56.253,15.447a6.162,6.162,0,0,0,0,8.713L80.9,48.806a6.162,6.162,0,0,0,8.713,0l1.811-1.861v9.772A6.16,6.16,0,0,0,94.418,62L121.246,78.1a6.04,6.04,0,0,0,1.232.579,80.962,80.962,0,0,1,32.36,19.335,6.162,6.162,0,0,0,4.362,1.836,6.085,6.085,0,0,0,2.354-.468,6.161,6.161,0,0,0,3.808-5.693C165.362,55.509,141.948,17.049,111.041,4.221Z" transform="translate(-29.801 0)" fill="#388e3c"/>
      <path id="Path_284-2" data-name="Path 284" d="M334.233,15.469A47.715,47.715,0,0,0,279.457,4.292c-30.918,12.779-54.333,51.239-54.333,89.416a6.162,6.162,0,0,0,3.808,5.693,6.094,6.094,0,0,0,2.354.468,6.16,6.16,0,0,0,4.362-1.8A81.024,81.024,0,0,1,267.971,78.7a5.8,5.8,0,0,0,1.232-.579l26.828-16.094a6.16,6.16,0,0,0,2.994-5.287V46.967l1.8,1.8a6.162,6.162,0,0,0,8.713,0L334.184,24.12a6.162,6.162,0,0,0,0-8.713Z" transform="translate(-101.887 -0.023)" fill="#4caf50"/>
      <path id="Path_285-2" data-name="Path 285" d="M231.747,167.9a6.126,6.126,0,0,0-12.237.48H207.026a6.161,6.161,0,0,0-12.237-.456l-12.323,166.36a6.161,6.161,0,0,0,5.689,6.6c.157.011.315.018.473.017H237.92a6.161,6.161,0,0,0,6.178-6.144q0-.237-.017-.473Z" transform="translate(-83.863 -68.506)" fill="#6d4c41"/>
      <g id="Group_423-2" data-name="Group 423" transform="translate(104.752 112.169)">
        <path id="Path_286-2" data-name="Path 286" d="M236.255,398.509H199.286a6.161,6.161,0,1,1,0-12.323h36.969a6.161,6.161,0,1,1,0,12.323Z" transform="translate(-193.124 -275.28)" fill="#795548"/>
        <path id="Path_287-2" data-name="Path 287" d="M234.6,334.51H209.951a6.162,6.162,0,0,1,0-12.324H234.6a6.162,6.162,0,1,1,0,12.324Z" transform="translate(-197.629 -248.248)" fill="#795548"/>
        <path id="Path_288-2" data-name="Path 288" d="M234.6,270.509H209.951a6.162,6.162,0,0,1,0-12.323H234.6a6.162,6.162,0,1,1,0,12.323Z" transform="translate(-197.629 -221.217)" fill="#795548"/>
        <path id="Path_289-2" data-name="Path 289" d="M234.6,206.509H209.951a6.162,6.162,0,0,1,0-12.323H234.6a6.162,6.162,0,1,1,0,12.323Z" transform="translate(-197.629 -194.186)" fill="#795548"/>
      </g>
      <path id="Path_290-2" data-name="Path 290" d="M326.166,113.39a94.888,94.888,0,0,0-99.25,21.43,6.162,6.162,0,0,0,3.068,10.389l71.683,15.28a6.162,6.162,0,0,0,6.692-3.056l2.747-5,3.993,7.985a6.161,6.161,0,0,0,4.4,3.3l33.889,6.162a5.86,5.86,0,0,0,1.109.1,6.162,6.162,0,0,0,6.161-6.162A52.817,52.817,0,0,0,326.166,113.39Z" transform="translate(-101.879 -45.434)" fill="#388e3c"/>
      <path id="Path_291-2" data-name="Path 291" d="M145.541,134.809a94.8,94.8,0,0,0-99.25-21.43,52.816,52.816,0,0,0-34.5,50.364,6.162,6.162,0,0,0,6.162,6.162,5.807,5.807,0,0,0,1.109-.1l33.889-6.162a6.162,6.162,0,0,0,4.4-3.3l3.993-7.985,2.748,5a6.161,6.161,0,0,0,6.691,3.056l71.634-15.28a6.161,6.161,0,0,0,3.068-10.388Z" transform="translate(-11.78 -45.424)" fill="#4caf50"/>
    </g>
  </g>
  <g id="cyclone" transform="translate(153.817 59.254)">
    <path id="Path_311" data-name="Path 311" d="M0,103.515c0,56.794,13.95,74.165,13.95,74.165s3.375-21.5,17.75-31.576c4.476,24.824,32.683,47.413,68.818,47.413,55.087,0,78.95-15.833,78.95-15.833-14.882-1.121-28.525-11.949-31.576-17.752,19-9.654,47.327-35.438,47.327-73.6,0-56.792-15.751-74.165-15.751-74.165s-3.375,21.5-17.752,31.576C151.442,24.584,123.327.438,84.152.438c-45.231,0-70.2,11.721-70.2,11.721s25.858,7.1,31.573,17.757C45.522,29.915,0,51.438,0,103.515Zm0,0" transform="translate(0 -0.438)" fill="#d9ecf2"/>
    <path id="Path_312" data-name="Path 312" d="M74.161,75.847c-26.79,26.79-28.4,41.564-28.4,41.564s11.732-8.547,23.268-6.522c-9.6,13.818-6.946,37.779,10.1,54.823,25.978,25.978,44.708,29.773,44.708,29.773-6.495-7.547-7.818-19.092-6.52-23.268,13.516,4.409,39.041,5.609,57.046-12.393,26.789-26.788,27.558-42.413,27.558-42.413s-11.733,8.545-23.268,6.521c4.189-13.881,2.316-38.53-16.164-57.01-21.343-21.336-38.652-27.585-38.652-27.585s8.85,15.547,6.521,23.267C130.352,62.6,98.726,51.282,74.161,75.847Zm0,0" transform="translate(-25.678 -22.267)" fill="#bdd9e5"/>
    <path id="Path_313" data-name="Path 313" d="M85.491,86.9c-24.749,24.75-26.233,38.388-26.233,38.388s10.835-7.9,21.488-6.022c-8.866,12.762-6.413,34.891,9.328,50.633,24,24,41.29,27.5,41.29,27.5-5.993-6.978-7.22-17.642-6.022-21.5,12.482,4.073,36.059,5.18,52.682-11.445,24.75-24.75,25.451-39.175,25.451-39.175s-10.835,7.9-21.488,6.022c3.86-12.813,2.139-35.585-14.92-52.658-19.716-19.69-35.7-25.464-35.7-25.464s8.175,14.358,6.023,21.49C137.388,74.666,108.178,64.21,85.491,86.9Zm0,0" transform="translate(-33.254 -30.033)" fill="#26a3b9"/>
    <path id="Path_314" data-name="Path 314" d="M213.213,169.957a37.177,37.177,0,1,1-37.178-37.176A37.176,37.176,0,0,1,213.213,169.957Zm0,0" transform="translate(-77.925 -74.707)" fill="#168aa5"/>
    <path id="Path_315" data-name="Path 315" d="M215.516,180.514a28.922,28.922,0,1,1-28.923-28.921A28.921,28.921,0,0,1,215.516,180.514Zm0,0" transform="translate(-88.482 -85.264)" fill="#d9ecf2"/>
  </g>
</svg>
